<svg id="svg" version="1.1" xmlns="http://www.w3.org/2000/svg" xmlns:xlink="http://www.w3.org/1999/xlink" width="400" height="253.99999999999997" viewBox="0, 0, 400,253.99999999999997"><g id="svgg"><path id="path0" d="M144.091 23.657 C 125.991 23.753,108.952 23.954,106.226 24.103 C 103.501 24.252,99.727 24.395,97.840 24.420 C 95.953 24.445,94.666 24.515,94.981 24.576 C 95.338 24.645,95.553 24.870,95.553 25.177 C 95.553 25.498,95.728 25.667,96.061 25.667 C 96.400 25.667,96.569 25.837,96.569 26.175 C 96.569 26.514,96.739 26.684,97.078 26.684 C 97.416 26.684,97.586 26.853,97.586 27.192 C 97.586 27.531,97.755 27.700,98.094 27.700 C 98.376 27.700,98.602 27.870,98.602 28.081 C 98.602 28.293,98.828 28.463,99.111 28.463 C 99.449 28.463,99.619 28.632,99.619 28.971 C 99.619 29.253,99.788 29.479,100.000 29.479 C 100.212 29.479,100.381 29.705,100.381 29.987 C 100.381 30.326,100.551 30.496,100.889 30.496 C 101.228 30.496,101.398 30.665,101.398 31.004 C 101.398 31.343,101.567 31.512,101.906 31.512 C 102.245 31.512,102.414 31.681,102.414 32.020 C 102.414 32.359,102.584 32.529,102.922 32.529 C 103.261 32.529,103.431 32.698,103.431 33.037 C 103.431 33.376,103.600 33.545,103.939 33.545 C 104.278 33.545,104.447 33.715,104.447 34.053 C 104.447 34.392,104.617 34.562,104.956 34.562 C 105.294 34.562,105.464 34.731,105.464 35.070 C 105.464 35.409,105.633 35.578,105.972 35.578 C 106.311 35.578,106.480 35.748,106.480 36.086 C 106.480 36.425,106.650 36.595,106.989 36.595 C 107.327 36.595,107.497 36.764,107.497 37.103 C 107.497 37.442,107.666 37.611,108.005 37.611 C 108.344 37.611,108.513 37.781,108.513 38.119 C 108.513 38.458,108.683 38.628,109.022 38.628 C 109.360 38.628,109.530 38.797,109.530 39.134 C 109.530 39.638,109.804 39.641,175.069 39.706 C 237.077 39.768,240.634 39.795,241.099 40.216 C 241.369 40.461,241.781 40.661,242.015 40.661 C 242.249 40.661,242.668 40.889,242.948 41.169 C 243.227 41.449,243.570 41.677,243.708 41.677 C 243.847 41.677,244.103 41.906,244.278 42.186 C 244.452 42.465,244.739 42.694,244.915 42.694 C 245.091 42.694,245.235 42.788,245.235 42.902 C 245.235 43.017,245.581 43.498,246.004 43.972 C 248.894 47.209,249.254 55.576,246.576 57.255 C 246.397 57.367,246.252 57.682,246.252 57.954 C 246.252 58.227,246.080 58.450,245.870 58.450 C 245.661 58.450,245.489 58.625,245.489 58.839 C 245.489 59.053,245.289 59.303,245.044 59.394 C 244.800 59.485,244.450 59.768,244.268 60.021 C 244.085 60.275,243.783 60.483,243.596 60.483 C 243.409 60.483,243.196 60.640,243.123 60.831 C 243.049 61.023,242.665 61.261,242.270 61.359 C 241.874 61.458,241.338 61.730,241.079 61.964 C 240.642 62.358,236.690 62.394,187.013 62.455 C 133.713 62.521,133.418 62.524,133.418 63.027 C 133.418 63.363,133.588 63.532,133.926 63.532 C 134.265 63.532,134.435 63.702,134.435 64.041 C 134.435 64.380,134.604 64.549,134.943 64.549 C 135.282 64.549,135.451 64.718,135.451 65.057 C 135.451 65.396,135.620 65.565,135.959 65.565 C 136.298 65.565,136.468 65.735,136.468 66.074 C 136.468 66.413,136.637 66.582,136.976 66.582 C 137.315 66.582,137.484 66.751,137.484 67.090 C 137.484 67.429,137.654 67.598,137.992 67.598 C 138.331 67.598,138.501 67.768,138.501 68.107 C 138.501 68.612,138.670 68.615,166.074 68.615 C 193.308 68.615,193.653 68.621,194.155 69.123 C 194.435 69.403,194.892 69.632,195.172 69.632 C 195.451 69.632,195.909 69.860,196.188 70.140 C 196.468 70.419,196.790 70.648,196.904 70.648 C 197.232 70.648,199.492 72.995,199.492 73.336 C 199.492 73.505,199.649 73.703,199.840 73.777 C 200.032 73.850,200.270 74.234,200.368 74.630 C 200.467 75.026,200.739 75.562,200.973 75.821 C 201.601 76.518,201.609 84.034,200.982 84.385 C 200.753 84.513,200.493 85.009,200.403 85.487 C 200.314 85.964,200.072 86.420,199.866 86.499 C 199.660 86.578,199.492 86.794,199.492 86.979 C 199.492 87.450,197.399 89.454,196.907 89.454 C 196.684 89.454,196.442 89.682,196.369 89.962 C 196.287 90.275,196.022 90.470,195.680 90.470 C 195.375 90.470,194.834 90.699,194.478 90.978 C 193.848 91.474,193.448 91.487,178.111 91.487 C 162.558 91.487,162.389 91.492,162.389 91.995 C 162.389 92.334,162.558 92.503,162.897 92.503 C 163.236 92.503,163.405 92.673,163.405 93.011 C 163.405 93.350,163.575 93.520,163.914 93.520 C 164.252 93.520,164.422 93.689,164.422 94.028 C 164.422 94.367,164.591 94.536,164.930 94.536 C 165.269 94.536,165.438 94.706,165.438 95.044 C 165.438 95.383,165.608 95.553,165.947 95.553 C 166.285 95.553,166.455 95.722,166.455 96.061 C 166.455 96.400,166.624 96.569,166.963 96.569 C 167.302 96.569,167.471 96.739,167.471 97.078 C 167.471 97.416,167.641 97.586,167.980 97.586 C 168.319 97.586,168.488 97.755,168.488 98.094 C 168.488 98.433,168.657 98.602,168.996 98.602 C 169.335 98.602,169.504 98.772,169.504 99.111 C 169.504 99.449,169.674 99.619,170.013 99.619 C 170.352 99.619,170.521 99.788,170.521 100.127 C 170.521 100.466,170.690 100.635,171.029 100.635 C 171.368 100.635,171.537 100.805,171.537 101.144 C 171.537 101.482,171.707 101.652,172.046 101.652 C 172.385 101.652,172.554 101.821,172.554 102.160 C 172.554 102.499,172.723 102.668,173.062 102.668 C 173.401 102.668,173.571 102.838,173.571 103.177 C 173.571 103.515,173.740 103.685,174.079 103.685 C 174.418 103.685,174.587 103.854,174.587 104.193 C 174.587 104.532,174.756 104.701,175.095 104.701 C 175.434 104.701,175.604 104.871,175.604 105.210 C 175.604 105.548,175.773 105.718,176.112 105.718 C 176.451 105.718,176.620 105.887,176.620 106.226 C 176.620 106.509,176.789 106.734,177.001 106.734 C 177.211 106.734,177.382 106.906,177.382 107.116 C 177.382 107.327,177.608 107.497,177.891 107.497 C 178.230 107.497,178.399 107.666,178.399 108.005 C 178.399 108.344,178.568 108.513,178.907 108.513 C 179.246 108.513,179.416 108.683,179.416 109.022 C 179.416 109.360,179.585 109.530,179.924 109.530 C 180.263 109.530,180.432 109.699,180.432 110.038 C 180.432 110.377,180.601 110.546,180.940 110.546 C 181.279 110.546,181.449 110.716,181.449 111.055 C 181.449 111.393,181.618 111.563,181.957 111.563 C 182.296 111.563,182.465 111.732,182.465 112.071 C 182.465 112.410,182.634 112.579,182.973 112.579 C 183.312 112.579,183.482 112.749,183.482 113.088 C 183.482 113.427,183.651 113.596,183.990 113.596 C 184.329 113.596,184.498 113.765,184.498 114.104 C 184.498 114.443,184.668 114.612,185.006 114.612 C 185.345 114.612,185.515 114.782,185.515 115.121 C 185.515 115.460,185.684 115.629,186.023 115.629 C 186.362 115.629,186.531 115.798,186.531 116.137 C 186.531 116.476,186.701 116.645,187.039 116.645 C 187.378 116.645,187.548 116.815,187.548 117.154 C 187.548 117.493,187.717 117.662,188.056 117.662 C 188.395 117.662,188.564 117.831,188.564 118.170 C 188.564 118.509,188.734 118.679,189.072 118.679 C 189.411 118.679,189.581 118.848,189.581 119.187 C 189.581 119.526,189.750 119.695,190.089 119.695 C 190.428 119.695,190.597 119.864,190.597 120.203 C 190.597 120.542,190.767 120.712,191.105 120.712 C 191.444 120.712,191.614 120.881,191.614 121.220 C 191.614 121.502,191.783 121.728,191.995 121.728 C 192.207 121.728,192.376 121.954,192.376 122.236 C 192.376 122.575,192.546 122.745,192.884 122.745 C 193.167 122.745,193.393 122.914,193.393 123.126 C 193.393 123.338,193.619 123.507,193.901 123.507 C 194.240 123.507,194.409 123.676,194.409 124.015 C 194.409 124.354,194.579 124.524,194.917 124.524 C 195.256 124.524,195.426 124.693,195.426 125.032 C 195.426 125.371,195.595 125.540,195.934 125.540 C 196.273 125.540,196.442 125.709,196.442 126.048 C 196.442 126.387,196.612 126.557,196.950 126.557 C 197.289 126.557,197.459 126.726,197.459 127.065 C 197.459 127.404,197.628 127.573,197.967 127.573 C 198.306 127.573,198.475 127.742,198.475 128.081 C 198.475 128.420,198.645 128.590,198.983 128.590 C 199.322 128.590,199.492 128.759,199.492 129.098 C 199.492 129.437,199.661 129.606,200.000 129.606 C 200.339 129.606,200.508 129.776,200.508 130.114 C 200.508 130.453,200.678 130.623,201.017 130.623 C 201.355 130.623,201.525 130.792,201.525 131.131 C 201.525 131.470,201.694 131.639,202.033 131.639 C 202.372 131.639,202.541 131.809,202.541 132.147 C 202.541 132.486,202.711 132.656,203.050 132.656 C 203.388 132.656,203.558 132.825,203.558 133.164 C 203.558 133.503,203.727 133.672,204.066 133.672 C 204.405 133.672,204.574 133.842,204.574 134.180 C 204.574 134.519,204.744 134.689,205.083 134.689 C 205.421 134.689,205.591 134.858,205.591 135.197 C 205.591 135.536,205.760 135.705,206.099 135.705 C 206.438 135.705,206.607 135.875,206.607 136.213 C 206.607 136.552,206.777 136.722,207.116 136.722 C 207.454 136.722,207.624 136.891,207.624 137.230 C 207.624 137.512,207.793 137.738,208.005 137.738 C 208.217 137.738,208.386 137.964,208.386 138.247 C 208.386 138.585,208.556 138.755,208.895 138.755 C 209.177 138.755,209.403 138.924,209.403 139.136 C 209.403 139.348,209.629 139.517,209.911 139.517 C 210.250 139.517,210.419 139.687,210.419 140.025 C 210.419 140.364,210.589 140.534,210.928 140.534 C 211.266 140.534,211.436 140.703,211.436 141.042 C 211.436 141.381,211.605 141.550,211.944 141.550 C 212.283 141.550,212.452 141.720,212.452 142.058 C 212.452 142.397,212.622 142.567,212.961 142.567 C 213.299 142.567,213.469 142.736,213.469 143.075 C 213.469 143.414,213.638 143.583,213.977 143.583 C 214.316 143.583,214.485 143.753,214.485 144.091 C 214.485 144.430,214.655 144.600,214.994 144.600 C 215.332 144.600,215.502 144.769,215.502 145.108 C 215.502 145.447,215.671 145.616,216.010 145.616 C 216.349 145.616,216.518 145.786,216.518 146.125 C 216.518 146.463,216.688 146.633,217.027 146.633 C 217.366 146.633,217.535 146.802,217.535 147.141 C 217.535 147.480,217.704 147.649,218.043 147.649 C 218.382 147.649,218.551 147.819,218.551 148.158 C 218.551 148.496,218.721 148.666,219.060 148.666 C 219.399 148.666,219.568 148.835,219.568 149.174 C 219.568 149.513,219.737 149.682,220.076 149.682 C 220.415 149.682,220.584 149.852,220.584 150.191 C 220.584 150.529,220.754 150.699,221.093 150.699 C 221.432 150.699,221.601 150.868,221.601 151.207 C 221.601 151.546,221.770 151.715,222.109 151.715 C 222.448 151.715,222.618 151.885,222.618 152.224 C 222.618 152.506,222.787 152.732,222.999 152.732 C 223.211 152.732,223.380 152.958,223.380 153.240 C 223.380 153.579,223.549 153.748,223.888 153.748 C 224.227 153.748,224.396 153.918,224.396 154.257 C 224.396 154.596,224.566 154.765,224.905 154.765 C 225.187 154.765,225.413 154.934,225.413 155.146 C 225.413 155.358,225.639 155.527,225.921 155.527 C 226.260 155.527,226.429 155.697,226.429 156.036 C 226.429 156.374,226.599 156.544,226.938 156.544 C 227.277 156.544,227.446 156.713,227.446 157.052 C 227.446 157.391,227.615 157.560,227.954 157.560 C 228.293 157.560,228.463 157.730,228.463 158.069 C 228.463 158.407,228.632 158.577,228.971 158.577 C 229.310 158.577,229.479 158.746,229.479 159.085 C 229.479 159.424,229.648 159.593,229.987 159.593 C 230.326 159.593,230.496 159.763,230.496 160.102 C 230.496 160.440,230.665 160.610,231.004 160.610 C 231.343 160.610,231.512 160.779,231.512 161.118 C 231.512 161.457,231.681 161.626,232.020 161.626 C 232.359 161.626,232.529 161.796,232.529 162.135 C 232.529 162.474,232.698 162.643,233.037 162.643 C 233.376 162.643,233.545 162.812,233.545 163.151 C 233.545 163.490,233.715 163.659,234.053 163.659 C 234.392 163.659,234.562 163.829,234.562 164.168 C 234.562 164.507,234.731 164.676,235.070 164.676 C 235.409 164.676,235.578 164.845,235.578 165.184 C 235.578 165.523,235.748 165.693,236.086 165.693 C 236.425 165.693,236.595 165.862,236.595 166.201 C 236.595 166.540,236.764 166.709,237.103 166.709 C 237.442 166.709,237.611 166.878,237.611 167.217 C 237.611 167.500,237.781 167.726,237.992 167.726 C 238.204 167.726,238.374 167.951,238.374 168.234 C 238.374 168.573,238.543 168.742,238.882 168.742 C 239.221 168.742,239.390 168.911,239.390 169.250 C 239.390 169.589,239.560 169.759,239.898 169.759 C 240.237 169.759,240.407 169.928,240.407 170.267 C 240.407 170.606,240.576 170.775,240.915 170.775 C 241.197 170.775,241.423 170.945,241.423 171.156 C 241.423 171.368,241.649 171.537,241.931 171.537 C 242.270 171.537,242.440 171.707,242.440 172.046 C 242.440 172.385,242.609 172.554,242.948 172.554 C 243.287 172.554,243.456 172.723,243.456 173.062 C 243.456 173.401,243.626 173.571,243.964 173.571 C 244.303 173.571,244.473 173.740,244.473 174.079 C 244.473 174.418,244.642 174.587,244.981 174.587 C 245.320 174.587,245.489 174.756,245.489 175.095 C 245.489 175.434,245.659 175.604,245.997 175.604 C 246.336 175.604,246.506 175.773,246.506 176.112 C 246.506 176.451,246.675 176.620,247.014 176.620 C 247.353 176.620,247.522 176.789,247.522 177.128 C 247.522 177.467,247.692 177.637,248.030 177.637 C 248.369 177.637,248.539 177.806,248.539 178.145 C 248.539 178.484,248.708 178.653,249.047 178.653 C 249.386 178.653,249.555 178.823,249.555 179.161 C 249.555 179.500,249.725 179.670,250.064 179.670 C 250.402 179.670,250.572 179.839,250.572 180.178 C 250.572 180.517,250.741 180.686,251.080 180.686 C 251.419 180.686,251.588 180.856,251.588 181.194 C 251.588 181.533,251.758 181.703,252.097 181.703 C 252.435 181.703,252.605 181.872,252.605 182.211 C 252.605 182.550,252.774 182.719,253.113 182.719 C 253.452 182.719,253.621 182.889,253.621 183.227 C 253.621 183.728,253.802 183.736,266.264 183.769 C 273.218 183.787,279.593 183.832,280.432 183.867 C 281.921 183.931,315.060 184.228,324.651 184.263 C 327.306 184.273,329.681 184.203,329.928 184.107 C 330.174 184.011,330.603 183.992,330.880 184.064 C 331.158 184.137,331.670 184.064,332.018 183.902 L 332.652 183.609 332.654 104.003 C 332.656 24.734,332.653 24.394,332.147 23.888 C 331.598 23.339,228.307 23.212,144.091 23.657 " stroke="none" fill="#04d3ad" fill-rule="evenodd"></path><path id="path1" d="M68.956 24.084 L 68.408 24.524 68.230 104.066 L 68.051 183.609 68.683 184.195 L 69.314 184.781 145.648 184.667 C 187.632 184.604,222.497 184.490,223.126 184.414 C 223.755 184.338,226.900 184.199,230.114 184.105 C 233.329 184.011,236.703 183.903,237.611 183.864 C 238.520 183.825,240.206 183.780,241.360 183.764 C 243.277 183.738,243.456 183.692,243.456 183.227 C 243.456 182.889,243.287 182.719,242.948 182.719 C 242.609 182.719,242.440 182.550,242.440 182.211 C 242.440 181.872,242.270 181.703,241.931 181.703 C 241.593 181.703,241.423 181.533,241.423 181.194 C 241.423 180.856,241.254 180.686,240.915 180.686 C 240.576 180.686,240.407 180.517,240.407 180.178 C 240.407 179.839,240.237 179.670,239.898 179.670 C 239.560 179.670,239.390 179.500,239.390 179.161 C 239.390 178.823,239.221 178.653,238.882 178.653 C 238.543 178.653,238.374 178.484,238.374 178.145 C 238.374 177.862,238.204 177.637,237.992 177.637 C 237.781 177.637,237.611 177.411,237.611 177.128 C 237.611 176.789,237.442 176.620,237.103 176.620 C 236.764 176.620,236.595 176.451,236.595 176.112 C 236.595 175.773,236.425 175.604,236.086 175.604 C 235.748 175.604,235.578 175.434,235.578 175.095 C 235.578 174.756,235.409 174.587,235.070 174.587 C 234.731 174.587,234.562 174.418,234.562 174.079 C 234.562 173.740,234.392 173.571,234.053 173.571 C 233.715 173.571,233.545 173.401,233.545 173.062 C 233.545 172.723,233.376 172.554,233.037 172.554 C 232.698 172.554,232.529 172.385,232.529 172.046 C 232.529 171.707,232.359 171.537,232.020 171.537 C 231.738 171.537,231.512 171.368,231.512 171.156 C 231.512 170.945,231.286 170.775,231.004 170.775 C 230.665 170.775,230.496 170.606,230.496 170.267 C 230.496 169.928,230.326 169.759,229.987 169.759 C 229.648 169.759,229.479 169.589,229.479 169.250 C 229.479 168.911,229.310 168.742,228.971 168.742 C 228.632 168.742,228.463 168.573,228.463 168.234 C 228.463 167.895,228.293 167.726,227.954 167.726 C 227.615 167.726,227.446 167.556,227.446 167.217 C 227.446 166.878,227.277 166.709,226.938 166.709 C 226.599 166.709,226.429 166.540,226.429 166.201 C 226.429 165.862,226.260 165.693,225.921 165.693 C 225.582 165.693,225.413 165.523,225.413 165.184 C 225.413 164.845,225.244 164.676,224.905 164.676 C 224.566 164.676,224.396 164.507,224.396 164.168 C 224.396 163.829,224.227 163.659,223.888 163.659 C 223.549 163.659,223.380 163.490,223.380 163.151 C 223.380 162.869,223.211 162.643,222.999 162.643 C 222.787 162.643,222.618 162.417,222.618 162.135 C 222.618 161.796,222.448 161.626,222.109 161.626 C 221.770 161.626,221.601 161.457,221.601 161.118 C 221.601 160.779,221.432 160.610,221.093 160.610 C 220.754 160.610,220.584 160.440,220.584 160.102 C 220.584 159.763,220.415 159.593,220.076 159.593 C 219.737 159.593,219.568 159.424,219.568 159.085 C 219.568 158.746,219.399 158.577,219.060 158.577 C 218.721 158.577,218.551 158.407,218.551 158.069 C 218.551 157.730,218.382 157.560,218.043 157.560 C 217.704 157.560,217.535 157.391,217.535 157.052 C 217.535 156.713,217.366 156.544,217.027 156.544 C 216.688 156.544,216.518 156.374,216.518 156.036 C 216.518 155.697,216.349 155.527,216.010 155.527 C 215.728 155.527,215.502 155.358,215.502 155.146 C 215.502 154.934,215.276 154.765,214.994 154.765 C 214.655 154.765,214.485 154.596,214.485 154.257 C 214.485 153.918,214.316 153.748,213.977 153.748 C 213.638 153.748,213.469 153.579,213.469 153.240 C 213.469 152.901,213.299 152.732,212.961 152.732 C 212.622 152.732,212.452 152.562,212.452 152.224 C 212.452 151.885,212.283 151.715,211.944 151.715 C 211.605 151.715,211.436 151.546,211.436 151.207 C 211.436 150.868,211.266 150.699,210.928 150.699 C 210.589 150.699,210.419 150.529,210.419 150.191 C 210.419 149.852,210.250 149.682,209.911 149.682 C 209.572 149.682,209.403 149.513,209.403 149.174 C 209.403 148.835,209.233 148.666,208.895 148.666 C 208.556 148.666,208.386 148.496,208.386 148.158 C 208.386 147.875,208.217 147.649,208.005 147.649 C 207.793 147.649,207.624 147.423,207.624 147.141 C 207.624 146.802,207.454 146.633,207.116 146.633 C 206.777 146.633,206.607 146.463,206.607 146.125 C 206.607 145.786,206.438 145.616,206.099 145.616 C 205.760 145.616,205.591 145.447,205.591 145.108 C 205.591 144.769,205.421 144.600,205.083 144.600 C 204.744 144.600,204.574 144.430,204.574 144.091 C 204.574 143.753,204.405 143.583,204.066 143.583 C 203.727 143.583,203.558 143.414,203.558 143.075 C 203.558 142.736,203.388 142.567,203.050 142.567 C 202.711 142.567,202.541 142.397,202.541 142.058 C 202.541 141.720,202.372 141.550,202.033 141.550 C 201.694 141.550,201.525 141.381,201.525 141.042 C 201.525 140.703,201.355 140.534,201.017 140.534 C 200.593 140.534,200.508 140.703,200.508 141.553 C 200.508 142.257,200.351 142.706,200.000 143.007 C 199.720 143.246,199.492 143.656,199.492 143.918 C 199.492 144.179,199.263 144.453,198.983 144.526 C 198.704 144.599,198.475 144.870,198.475 145.127 C 198.475 145.669,197.418 146.742,196.315 147.319 C 195.896 147.539,195.469 147.861,195.366 148.036 C 195.263 148.211,194.788 148.427,194.310 148.517 C 193.833 148.606,193.370 148.866,193.282 149.095 C 193.136 149.477,188.905 149.498,138.811 149.358 L 84.498 149.207 82.973 148.511 C 78.276 146.368,75.985 142.954,75.985 138.100 C 75.985 135.932,76.080 135.244,76.493 134.435 C 76.773 133.887,77.001 133.315,77.001 133.164 C 77.001 132.259,81.121 128.081,82.014 128.081 C 82.126 128.081,82.674 127.829,83.231 127.520 L 84.244 126.958 135.070 126.783 C 163.024 126.686,186.039 126.596,186.213 126.582 C 186.769 126.538,186.586 125.540,186.023 125.540 C 185.684 125.540,185.515 125.371,185.515 125.032 C 185.515 124.693,185.345 124.524,185.006 124.524 C 184.668 124.524,184.498 124.354,184.498 124.015 C 184.498 123.676,184.329 123.507,183.990 123.507 C 183.707 123.507,183.482 123.338,183.482 123.126 C 183.482 122.914,183.256 122.745,182.973 122.745 C 182.634 122.745,182.465 122.575,182.465 122.236 C 182.465 121.898,182.296 121.728,181.957 121.728 C 181.618 121.728,181.449 121.559,181.449 121.220 C 181.449 120.881,181.279 120.712,180.940 120.712 C 180.601 120.712,180.432 120.542,180.432 120.203 C 180.432 119.864,180.263 119.695,179.924 119.695 C 179.585 119.695,179.416 119.526,179.416 119.187 C 179.416 118.848,179.246 118.679,178.907 118.679 C 178.568 118.679,178.399 118.509,178.399 118.170 C 178.399 117.831,178.230 117.662,177.891 117.662 C 177.552 117.662,177.382 117.493,177.382 117.154 C 177.382 116.871,177.213 116.645,177.001 116.645 C 176.789 116.645,176.620 116.420,176.620 116.137 C 176.620 115.798,176.451 115.629,176.112 115.629 C 175.773 115.629,175.604 115.460,175.604 115.121 C 175.604 114.782,175.434 114.612,175.095 114.612 C 174.756 114.612,174.587 114.443,174.587 114.104 C 174.587 113.765,174.418 113.596,174.079 113.596 C 173.740 113.596,173.571 113.427,173.571 113.088 C 173.571 112.749,173.401 112.579,173.062 112.579 C 172.723 112.579,172.554 112.410,172.554 112.071 C 172.554 111.732,172.385 111.563,172.046 111.563 C 171.707 111.563,171.537 111.393,171.537 111.055 C 171.537 110.716,171.368 110.546,171.029 110.546 C 170.690 110.546,170.521 110.377,170.521 110.038 C 170.521 109.699,170.352 109.530,170.013 109.530 C 169.674 109.530,169.504 109.360,169.504 109.022 C 169.504 108.683,169.335 108.513,168.996 108.513 C 168.657 108.513,168.488 108.344,168.488 108.005 C 168.488 107.666,168.319 107.497,167.980 107.497 C 167.697 107.497,167.471 107.327,167.471 107.116 C 167.471 106.904,167.246 106.734,166.963 106.734 C 166.624 106.734,166.455 106.565,166.455 106.226 C 166.455 105.887,166.285 105.718,165.947 105.718 C 165.608 105.718,165.438 105.548,165.438 105.210 C 165.438 104.871,165.269 104.701,164.930 104.701 C 164.591 104.701,164.422 104.532,164.422 104.193 C 164.422 103.854,164.252 103.685,163.914 103.685 C 163.575 103.685,163.405 103.515,163.405 103.177 C 163.405 102.838,163.236 102.668,162.897 102.668 C 162.558 102.668,162.389 102.499,162.389 102.160 C 162.389 101.878,162.219 101.652,162.008 101.652 C 161.796 101.652,161.626 101.426,161.626 101.144 C 161.626 100.805,161.457 100.635,161.118 100.635 C 160.779 100.635,160.610 100.466,160.610 100.127 C 160.610 99.788,160.440 99.619,160.102 99.619 C 159.763 99.619,159.593 99.449,159.593 99.111 C 159.593 98.772,159.424 98.602,159.085 98.602 C 158.746 98.602,158.577 98.433,158.577 98.094 C 158.577 97.755,158.407 97.586,158.069 97.586 C 157.730 97.586,157.560 97.416,157.560 97.078 C 157.560 96.739,157.391 96.569,157.052 96.569 C 156.713 96.569,156.544 96.400,156.544 96.061 C 156.544 95.722,156.374 95.553,156.036 95.553 C 155.697 95.553,155.527 95.383,155.527 95.044 C 155.527 94.706,155.358 94.536,155.019 94.536 C 154.680 94.536,154.511 94.367,154.511 94.028 C 154.511 93.689,154.341 93.520,154.003 93.520 C 153.664 93.520,153.494 93.350,153.494 93.011 C 153.494 92.673,153.325 92.503,152.986 92.503 C 152.662 92.503,152.478 92.334,152.478 92.037 C 152.478 91.588,151.235 91.564,118.802 91.400 C 85.812 91.233,85.107 91.219,84.181 90.723 C 83.661 90.444,83.153 90.216,83.052 90.216 C 82.076 90.216,79.009 87.137,77.865 85.006 C 76.742 82.918,76.388 77.604,77.279 76.228 C 77.501 75.885,77.754 75.317,77.840 74.966 C 77.926 74.615,78.402 73.886,78.897 73.346 C 79.392 72.805,79.797 72.282,79.797 72.184 C 79.797 71.923,81.980 70.388,83.605 69.506 L 85.006 68.746 106.798 68.667 C 128.202 68.590,128.590 68.580,128.590 68.094 C 128.590 67.768,128.416 67.598,128.081 67.598 C 127.742 67.598,127.573 67.429,127.573 67.090 C 127.573 66.751,127.404 66.582,127.065 66.582 C 126.726 66.582,126.557 66.413,126.557 66.074 C 126.557 65.735,126.387 65.565,126.048 65.565 C 125.709 65.565,125.540 65.396,125.540 65.057 C 125.540 64.718,125.371 64.549,125.032 64.549 C 124.693 64.549,124.524 64.380,124.524 64.041 C 124.524 63.702,124.354 63.532,124.015 63.532 C 123.680 63.532,123.507 63.363,123.507 63.034 C 123.507 62.545,123.177 62.535,103.584 62.463 C 85.385 62.395,83.621 62.352,83.190 61.964 C 82.931 61.730,82.413 61.463,82.039 61.369 C 81.665 61.276,81.161 60.981,80.920 60.714 C 80.678 60.447,80.384 60.229,80.266 60.229 C 79.970 60.229,77.992 58.285,77.598 57.606 C 77.254 57.016,76.888 56.277,76.631 55.654 C 76.544 55.445,76.308 54.987,76.106 54.638 C 75.483 53.562,75.583 47.778,76.239 46.945 C 76.518 46.589,76.747 46.132,76.747 45.928 C 76.747 45.724,76.976 45.267,77.255 44.912 C 77.535 44.556,77.764 44.141,77.764 43.988 C 77.764 43.835,77.935 43.710,78.145 43.710 C 78.355 43.710,78.526 43.617,78.526 43.502 C 78.526 43.095,79.976 41.677,80.391 41.677 C 80.623 41.677,80.813 41.518,80.813 41.323 C 80.813 40.946,81.343 40.661,82.044 40.661 C 82.278 40.661,82.613 40.432,82.787 40.152 C 83.094 39.661,83.380 39.644,91.362 39.644 C 99.449 39.644,99.619 39.634,99.619 39.136 C 99.619 38.797,99.449 38.628,99.111 38.628 C 98.772 38.628,98.602 38.458,98.602 38.119 C 98.602 37.781,98.433 37.611,98.094 37.611 C 97.755 37.611,97.586 37.442,97.586 37.103 C 97.586 36.764,97.416 36.595,97.078 36.595 C 96.739 36.595,96.569 36.425,96.569 36.086 C 96.569 35.748,96.400 35.578,96.061 35.578 C 95.722 35.578,95.553 35.409,95.553 35.070 C 95.553 34.731,95.383 34.562,95.044 34.562 C 94.706 34.562,94.536 34.392,94.536 34.053 C 94.536 33.715,94.367 33.545,94.028 33.545 C 93.689 33.545,93.520 33.376,93.520 33.037 C 93.520 32.698,93.350 32.529,93.011 32.529 C 92.673 32.529,92.503 32.359,92.503 32.020 C 92.503 31.681,92.334 31.512,91.995 31.512 C 91.656 31.512,91.487 31.343,91.487 31.004 C 91.487 30.665,91.317 30.496,90.978 30.496 C 90.640 30.496,90.470 30.326,90.470 29.987 C 90.470 29.648,90.301 29.479,89.962 29.479 C 89.623 29.479,89.454 29.310,89.454 28.971 C 89.454 28.632,89.284 28.463,88.945 28.463 C 88.663 28.463,88.437 28.293,88.437 28.081 C 88.437 27.870,88.211 27.700,87.929 27.700 C 87.590 27.700,87.421 27.531,87.421 27.192 C 87.421 26.853,87.251 26.684,86.912 26.684 C 86.573 26.684,86.404 26.514,86.404 26.175 C 86.404 25.837,86.235 25.667,85.896 25.667 C 85.572 25.667,85.388 25.498,85.388 25.199 C 85.388 23.819,70.545 22.812,68.956 24.084 M142.223 98.138 C 142.482 98.371,143.017 98.643,143.413 98.742 C 143.809 98.841,144.193 99.079,144.266 99.270 C 144.340 99.462,144.581 99.619,144.801 99.619 C 145.266 99.619,146.379 100.593,146.379 101.000 C 146.379 101.151,146.607 101.418,146.887 101.593 C 147.166 101.767,147.395 102.053,147.395 102.228 C 147.395 102.403,147.624 102.689,147.903 102.864 C 148.228 103.066,148.412 103.456,148.412 103.941 C 148.412 104.422,148.542 104.701,148.766 104.701 C 149.655 104.701,149.789 112.052,148.920 113.157 C 148.640 113.512,148.412 113.985,148.412 114.208 C 148.412 114.430,148.183 114.841,147.903 115.121 C 147.624 115.400,147.395 115.701,147.395 115.789 C 147.395 116.103,144.988 118.424,144.662 118.424 C 144.479 118.424,144.267 118.589,144.189 118.790 C 144.112 118.991,143.687 119.233,143.244 119.327 C 142.802 119.421,142.227 119.685,141.967 119.914 C 141.184 120.605,84.981 120.369,83.432 119.669 C 82.846 119.404,82.250 119.187,82.109 119.187 C 81.367 119.187,78.682 116.816,77.643 115.245 C 75.919 112.636,75.322 107.461,76.493 105.276 C 76.773 104.754,77.001 104.193,77.001 104.029 C 77.001 102.995,79.865 100.189,82.211 98.925 L 83.990 97.967 106.099 97.827 C 139.755 97.614,141.660 97.630,142.223 98.138 " stroke="none" fill="#04d25d" fill-rule="evenodd"></path><path id="path2" d="M59.466 0.254 C 59.466 0.394,58.827 0.508,58.045 0.508 C 56.837 0.508,56.603 0.585,56.490 1.017 C 56.391 1.398,56.144 1.525,55.498 1.525 C 54.880 1.525,54.638 1.639,54.638 1.930 C 54.638 2.153,54.409 2.395,54.130 2.468 C 53.848 2.541,53.621 2.814,53.621 3.079 C 53.621 3.468,53.431 3.558,52.605 3.558 C 51.758 3.558,51.588 3.643,51.588 4.066 C 51.588 4.405,51.419 4.574,51.080 4.574 C 50.741 4.574,50.572 4.744,50.572 5.083 C 50.572 5.421,50.402 5.591,50.064 5.591 C 49.725 5.591,49.555 5.760,49.555 6.099 C 49.555 6.438,49.386 6.607,49.047 6.607 C 48.719 6.607,48.539 6.777,48.539 7.086 C 48.539 7.351,48.312 7.624,48.030 7.698 C 47.666 7.793,47.522 8.044,47.522 8.587 C 47.522 9.130,47.379 9.381,47.014 9.476 C 46.625 9.578,46.506 9.823,46.506 10.523 C 46.506 11.266,46.411 11.436,45.997 11.436 C 45.576 11.436,45.489 11.605,45.489 12.423 C 45.489 13.196,45.379 13.438,44.981 13.543 C 44.529 13.661,44.473 13.889,44.473 15.605 C 44.473 17.085,44.390 17.535,44.119 17.535 C 43.461 17.535,43.456 18.223,43.456 112.878 C 43.456 207.204,43.457 207.418,43.964 207.550 C 44.246 207.624,44.473 207.897,44.473 208.162 C 44.473 208.630,47.863 208.640,200.508 208.640 L 356.544 208.640 356.544 111.666 C 356.544 14.906,356.543 14.692,356.036 14.559 C 355.608 14.447,355.527 14.212,355.527 13.075 C 355.527 11.947,355.443 11.698,355.019 11.563 C 354.641 11.443,354.511 11.178,354.511 10.529 C 354.511 9.826,354.412 9.657,354.003 9.657 C 353.656 9.657,353.494 9.488,353.494 9.125 C 353.494 8.807,353.290 8.539,352.986 8.460 C 352.604 8.360,352.478 8.113,352.478 7.467 C 352.478 6.777,352.378 6.607,351.970 6.607 C 351.631 6.607,351.461 6.438,351.461 6.099 C 351.461 5.760,351.292 5.591,350.953 5.591 C 350.614 5.591,350.445 5.421,350.445 5.083 C 350.445 4.744,350.275 4.574,349.936 4.574 C 349.598 4.574,349.428 4.405,349.428 4.066 C 349.428 3.643,349.259 3.558,348.412 3.558 C 347.565 3.558,347.395 3.473,347.395 3.050 C 347.395 2.711,347.226 2.541,346.887 2.541 C 346.548 2.541,346.379 2.372,346.379 2.033 C 346.379 1.623,346.209 1.525,345.506 1.525 C 344.857 1.525,344.593 1.395,344.473 1.017 C 344.337 0.590,344.088 0.508,342.931 0.508 C 342.171 0.508,341.550 0.394,341.550 0.254 C 341.550 0.085,294.367 0.000,200.508 0.000 C 106.650 0.000,59.466 0.085,59.466 0.254 M332.932 23.345 C 333.408 23.932,333.418 25.555,333.418 103.920 L 333.418 183.896 332.481 184.726 L 331.543 185.556 200.233 185.472 C 74.930 185.391,68.900 185.367,68.424 184.937 C 67.895 184.458,67.278 26.148,67.796 23.889 C 67.959 23.178,68.151 22.969,68.752 22.842 C 69.166 22.755,128.666 22.698,200.975 22.714 L 332.446 22.745 332.932 23.345 M84.802 40.770 C 84.551 40.961,83.928 41.196,83.418 41.291 C 82.909 41.387,82.213 41.684,81.873 41.952 C 81.532 42.220,81.156 42.440,81.038 42.440 C 80.698 42.440,78.272 44.984,78.272 45.342 C 78.272 45.519,78.055 45.861,77.790 46.100 C 77.525 46.340,77.233 47.041,77.140 47.659 C 77.048 48.276,76.864 48.848,76.732 48.929 C 76.351 49.165,76.454 52.449,76.874 53.455 C 77.084 53.957,77.255 54.632,77.255 54.954 C 77.255 55.277,77.484 55.737,77.764 55.977 C 78.043 56.216,78.272 56.584,78.272 56.795 C 78.272 57.259,80.774 59.720,81.245 59.720 C 81.430 59.720,81.776 59.949,82.016 60.229 C 82.255 60.508,82.683 60.739,82.966 60.743 C 83.250 60.746,83.980 60.974,84.589 61.251 C 86.335 62.043,237.426 62.043,239.172 61.251 C 239.781 60.974,240.569 60.746,240.922 60.743 C 241.275 60.739,241.760 60.508,241.999 60.229 C 242.239 59.949,242.586 59.720,242.770 59.720 C 243.220 59.720,245.743 57.269,245.743 56.831 C 245.743 56.641,245.972 56.195,246.252 55.839 C 246.531 55.484,246.760 54.948,246.760 54.649 C 246.760 54.349,246.950 53.738,247.182 53.291 C 247.732 52.233,247.732 49.927,247.182 48.869 C 246.950 48.422,246.760 47.780,246.760 47.442 C 246.760 47.105,246.531 46.538,246.252 46.182 C 245.972 45.827,245.743 45.436,245.743 45.314 C 245.743 44.961,243.391 42.599,242.692 42.251 C 242.344 42.077,241.887 41.830,241.677 41.701 C 241.468 41.572,240.522 41.228,239.575 40.937 L 237.855 40.407 161.558 40.415 C 97.447 40.421,85.187 40.478,84.802 40.770 M85.515 69.900 C 84.956 70.164,84.266 70.384,83.983 70.387 C 83.699 70.391,83.272 70.623,83.032 70.902 C 82.793 71.182,82.407 71.410,82.174 71.410 C 81.682 71.410,79.929 73.226,79.353 74.333 C 79.135 74.752,78.814 75.210,78.641 75.349 C 78.468 75.489,78.266 75.947,78.193 76.366 C 78.120 76.785,77.862 77.682,77.620 78.360 C 77.058 79.930,77.785 83.894,78.851 85.071 C 79.092 85.337,79.288 85.675,79.288 85.821 C 79.288 86.166,81.692 88.691,82.020 88.691 C 82.157 88.691,82.542 88.905,82.876 89.166 C 83.209 89.428,83.882 89.725,84.371 89.827 C 84.860 89.928,85.514 90.172,85.823 90.368 C 86.668 90.903,191.349 90.903,192.194 90.368 C 192.504 90.172,193.158 89.928,193.647 89.827 C 194.136 89.725,194.809 89.428,195.142 89.166 C 195.476 88.905,195.877 88.691,196.034 88.691 C 196.191 88.691,196.463 88.463,196.637 88.183 C 196.812 87.903,197.125 87.675,197.334 87.675 C 197.542 87.675,197.713 87.541,197.713 87.378 C 197.713 87.215,197.887 86.901,198.100 86.680 C 198.929 85.819,199.699 84.382,199.868 83.385 C 199.965 82.810,200.138 82.283,200.252 82.212 C 200.774 81.890,200.781 79.651,200.267 78.048 C 199.980 77.156,199.746 76.238,199.746 76.008 C 199.746 75.778,199.517 75.394,199.238 75.154 C 198.958 74.915,198.729 74.564,198.729 74.375 C 198.729 74.185,198.501 73.824,198.221 73.571 C 197.942 73.318,197.713 72.957,197.713 72.769 C 197.713 72.581,197.542 72.427,197.334 72.427 C 197.125 72.427,196.812 72.198,196.637 71.919 C 196.463 71.639,196.118 71.410,195.870 71.410 C 195.623 71.410,195.225 71.182,194.986 70.902 C 194.746 70.623,194.344 70.394,194.092 70.394 C 193.840 70.394,192.983 70.165,192.188 69.886 C 189.979 69.109,87.156 69.123,85.515 69.900 M85.769 98.522 C 85.489 98.585,84.900 98.801,84.460 99.001 C 84.019 99.201,83.425 99.365,83.138 99.365 C 81.771 99.365,78.998 101.904,77.476 104.549 C 76.794 105.735,76.228 110.555,76.704 111.131 C 76.842 111.299,77.039 111.884,77.142 112.431 C 77.322 113.393,78.101 114.819,78.901 115.650 C 79.114 115.872,79.288 116.186,79.288 116.349 C 79.288 116.512,79.386 116.645,79.505 116.645 C 79.625 116.645,80.031 116.931,80.408 117.281 C 80.785 117.630,81.213 117.916,81.358 117.916 C 81.503 117.916,81.913 118.145,82.269 118.424 C 82.624 118.704,83.157 118.933,83.452 118.934 C 83.748 118.935,84.317 119.107,84.718 119.315 C 85.350 119.645,88.978 119.695,112.349 119.695 L 139.252 119.695 140.973 119.134 C 141.919 118.826,142.837 118.433,143.013 118.261 C 143.188 118.090,143.562 117.877,143.842 117.787 C 144.405 117.609,146.633 115.508,146.633 115.156 C 146.633 115.035,146.847 114.662,147.108 114.329 C 147.369 113.996,147.666 113.323,147.768 112.834 C 147.870 112.344,148.114 111.691,148.310 111.381 C 148.783 110.633,148.773 107.532,148.295 106.902 C 148.100 106.644,147.863 105.974,147.768 105.413 C 147.673 104.852,147.379 104.177,147.114 103.912 C 146.849 103.647,146.633 103.259,146.633 103.050 C 146.633 102.840,146.516 102.668,146.373 102.668 C 146.230 102.668,145.983 102.382,145.824 102.033 C 145.665 101.684,145.378 101.398,145.186 101.398 C 144.995 101.398,144.770 101.222,144.688 101.007 C 144.606 100.792,144.180 100.451,143.743 100.250 C 143.306 100.048,142.776 99.780,142.567 99.654 C 142.357 99.527,141.671 99.291,141.042 99.129 C 140.413 98.966,139.498 98.727,139.009 98.597 C 138.129 98.363,86.792 98.291,85.769 98.522 M85.642 127.489 C 85.432 127.560,84.900 127.780,84.460 127.977 C 84.019 128.174,83.436 128.335,83.164 128.335 C 82.892 128.335,82.406 128.564,82.084 128.844 C 81.762 129.123,81.367 129.352,81.207 129.352 C 80.763 129.352,78.841 131.292,78.368 132.217 C 78.137 132.668,77.793 133.128,77.602 133.240 C 77.411 133.352,77.255 133.727,77.255 134.074 C 77.255 134.421,77.084 135.116,76.874 135.617 C 76.665 136.119,76.493 137.245,76.493 138.119 C 76.493 138.994,76.665 140.120,76.874 140.622 C 77.084 141.123,77.255 141.823,77.255 142.177 C 77.255 142.531,77.367 142.821,77.504 142.821 C 77.641 142.821,77.983 143.272,78.265 143.823 C 78.894 145.057,80.448 146.611,81.385 146.943 C 81.769 147.079,82.084 147.289,82.084 147.409 C 82.084 147.528,82.513 147.704,83.037 147.799 C 83.561 147.894,84.333 148.156,84.752 148.382 C 85.763 148.927,190.256 148.833,191.360 148.286 C 191.709 148.113,192.413 147.896,192.923 147.803 C 193.434 147.711,193.916 147.467,193.995 147.261 C 194.074 147.055,194.370 146.887,194.652 146.887 C 195.289 146.887,197.381 144.770,197.848 143.652 C 198.039 143.195,198.301 142.821,198.430 142.821 C 198.559 142.821,198.739 142.351,198.831 141.778 C 198.923 141.204,199.166 140.409,199.372 140.011 C 199.899 138.993,199.839 136.983,199.243 135.669 C 198.967 135.060,198.738 134.330,198.735 134.046 C 198.732 133.763,198.501 133.335,198.221 133.096 C 197.942 132.856,197.713 132.514,197.713 132.334 C 197.713 131.891,195.226 129.352,194.792 129.352 C 194.602 129.352,194.268 129.175,194.051 128.958 C 193.696 128.603,192.854 128.307,190.089 127.569 C 189.171 127.323,86.359 127.245,85.642 127.489 M146.633 218.170 C 146.633 218.508,138.362 218.551,73.718 218.551 C 33.615 218.551,0.623 218.621,0.402 218.706 C -0.063 218.884,-0.204 222.618,0.254 222.618 C 0.409 222.618,0.508 223.755,0.508 225.523 C 0.508 228.205,0.547 228.441,1.017 228.590 C 1.443 228.725,1.525 228.974,1.525 230.131 C 1.525 231.343,1.587 231.512,2.033 231.512 C 2.485 231.512,2.541 231.681,2.541 233.037 C 2.541 234.392,2.598 234.562,3.050 234.562 C 3.473 234.562,3.558 234.731,3.558 235.578 C 3.558 236.425,3.643 236.595,4.066 236.595 C 4.405 236.595,4.574 236.764,4.574 237.103 C 4.574 237.442,4.744 237.611,5.083 237.611 C 5.506 237.611,5.591 237.781,5.591 238.628 C 5.591 239.475,5.676 239.644,6.099 239.644 C 6.438 239.644,6.607 239.814,6.607 240.152 C 6.607 240.491,6.777 240.661,7.116 240.661 C 7.530 240.661,7.624 240.830,7.624 241.574 C 7.624 242.274,7.743 242.518,8.132 242.620 C 8.412 242.693,8.640 242.911,8.640 243.105 C 8.640 243.298,8.757 243.456,8.900 243.456 C 9.043 243.456,9.290 243.742,9.449 244.091 C 9.608 244.441,9.831 244.727,9.943 244.727 C 10.056 244.727,10.548 245.127,11.038 245.616 C 11.663 246.242,12.156 246.506,12.698 246.506 C 13.299 246.506,13.469 246.617,13.469 247.014 C 13.469 247.353,13.638 247.522,13.977 247.522 C 14.316 247.522,14.485 247.692,14.485 248.030 C 14.485 248.454,14.655 248.539,15.502 248.539 C 16.349 248.539,16.518 248.623,16.518 249.047 C 16.518 249.386,16.688 249.555,17.027 249.555 C 17.366 249.555,17.535 249.725,17.535 250.064 C 17.535 250.487,17.704 250.572,18.551 250.572 C 19.399 250.572,19.568 250.657,19.568 251.080 C 19.568 251.504,19.737 251.588,20.584 251.588 C 21.432 251.588,21.601 251.673,21.601 252.097 C 21.601 252.547,21.770 252.605,23.096 252.605 C 24.378 252.605,24.610 252.677,24.724 253.113 C 24.845 253.574,25.071 253.621,27.168 253.621 C 28.539 253.621,29.479 253.725,29.479 253.875 C 29.479 254.045,86.785 254.130,200.889 254.130 C 314.994 254.130,372.300 254.045,372.300 253.875 C 372.300 253.728,373.113 253.621,374.230 253.621 C 375.946 253.621,376.174 253.565,376.292 253.113 C 376.396 252.715,376.639 252.605,377.412 252.605 C 378.230 252.605,378.399 252.518,378.399 252.097 C 378.399 251.378,380.218 251.374,380.935 252.091 C 381.466 252.622,382.077 252.557,382.313 251.944 C 382.390 251.742,382.227 251.351,381.951 251.074 C 381.450 250.574,381.452 250.572,382.362 250.572 C 383.061 250.572,383.306 250.453,383.408 250.064 C 383.482 249.782,383.755 249.555,384.019 249.555 C 384.329 249.555,384.498 249.375,384.498 249.047 C 384.498 248.623,384.668 248.539,385.515 248.539 C 386.362 248.539,386.531 248.454,386.531 248.030 C 386.531 247.692,386.701 247.522,387.039 247.522 C 387.378 247.522,387.548 247.353,387.548 247.014 C 387.548 246.675,387.717 246.506,388.056 246.506 C 388.338 246.506,388.564 246.336,388.564 246.125 C 388.564 245.915,388.746 245.743,388.969 245.743 C 389.192 245.743,389.434 245.515,389.507 245.235 C 389.580 244.956,389.809 244.727,390.015 244.727 C 390.222 244.727,390.450 244.498,390.524 244.219 C 390.597 243.939,390.825 243.710,391.032 243.710 C 391.238 243.710,391.467 243.482,391.540 243.202 C 391.613 242.922,391.831 242.694,392.025 242.694 C 392.218 242.694,392.376 242.465,392.376 242.186 C 392.376 241.847,392.546 241.677,392.884 241.677 C 393.223 241.677,393.393 241.508,393.393 241.169 C 393.393 240.830,393.562 240.661,393.901 240.661 C 394.240 240.661,394.409 240.491,394.409 240.152 C 394.409 239.814,394.579 239.644,394.917 239.644 C 395.341 239.644,395.426 239.475,395.426 238.628 C 395.426 237.781,395.510 237.611,395.934 237.611 C 396.357 237.611,396.442 237.442,396.442 236.595 C 396.442 235.748,396.527 235.578,396.950 235.578 C 397.374 235.578,397.459 235.409,397.459 234.562 C 397.459 233.715,397.543 233.545,397.967 233.545 C 398.391 233.545,398.475 233.376,398.475 232.529 C 398.475 231.681,398.560 231.512,398.983 231.512 C 399.447 231.512,399.492 231.343,399.492 229.606 C 399.492 228.505,399.599 227.700,399.746 227.700 C 399.907 227.700,400.000 225.879,400.000 222.745 L 400.000 217.789 399.392 217.789 C 399.057 217.789,398.718 217.961,398.637 218.170 C 398.508 218.508,390.095 218.551,325.040 218.551 L 251.588 218.551 251.588 219.568 C 251.588 220.415,251.504 220.584,251.080 220.584 C 250.628 220.584,250.572 220.754,250.572 222.109 C 250.572 223.465,250.515 223.634,250.064 223.634 C 249.640 223.634,249.555 223.803,249.555 224.651 C 249.555 225.498,249.471 225.667,249.047 225.667 C 248.708 225.667,248.539 225.837,248.539 226.175 C 248.539 226.585,248.369 226.684,247.666 226.684 C 247.017 226.684,246.753 226.814,246.633 227.192 C 246.544 227.471,246.250 227.700,245.980 227.700 C 245.659 227.700,245.489 227.875,245.489 228.208 C 245.489 228.632,245.320 228.717,244.473 228.717 C 243.626 228.717,243.456 228.801,243.456 229.225 C 243.456 229.731,243.287 229.733,200.508 229.733 C 157.730 229.733,157.560 229.731,157.560 229.225 C 157.560 228.801,157.391 228.717,156.544 228.717 C 155.697 228.717,155.527 228.632,155.527 228.208 C 155.527 227.785,155.358 227.700,154.511 227.700 C 153.664 227.700,153.494 227.615,153.494 227.192 C 153.494 226.853,153.325 226.684,152.986 226.684 C 152.647 226.684,152.478 226.514,152.478 226.175 C 152.478 225.837,152.308 225.667,151.970 225.667 C 151.556 225.667,151.461 225.498,151.461 224.754 C 151.461 224.054,151.342 223.809,150.953 223.708 C 150.555 223.604,150.445 223.361,150.445 222.588 C 150.445 221.770,150.357 221.601,149.936 221.601 C 149.485 221.601,149.428 221.432,149.428 220.076 C 149.428 218.750,149.366 218.551,148.947 218.551 C 148.683 218.551,148.400 218.380,148.320 218.170 C 148.234 217.947,147.853 217.789,147.403 217.789 C 146.888 217.789,146.633 217.915,146.633 218.170 " stroke="none" fill="#040404" fill-rule="evenodd"></path><path id="path3" d="M68.615 23.634 C 68.110 24.139,68.107 24.439,68.169 64.231 L 68.232 104.320 68.297 64.422 L 68.362 24.524 68.933 24.085 C 70.583 22.815,85.388 23.817,85.388 25.199 C 85.388 25.498,85.572 25.667,85.896 25.667 C 86.235 25.667,86.404 25.837,86.404 26.175 C 86.404 26.514,86.573 26.684,86.912 26.684 C 87.251 26.684,87.421 26.853,87.421 27.192 C 87.421 27.531,87.590 27.700,87.929 27.700 C 88.211 27.700,88.437 27.870,88.437 28.081 C 88.437 28.293,88.663 28.463,88.945 28.463 C 89.284 28.463,89.454 28.632,89.454 28.971 C 89.454 29.310,89.623 29.479,89.962 29.479 C 90.301 29.479,90.470 29.648,90.470 29.987 C 90.470 30.326,90.640 30.496,90.978 30.496 C 91.317 30.496,91.487 30.665,91.487 31.004 C 91.487 31.343,91.656 31.512,91.995 31.512 C 92.334 31.512,92.503 31.681,92.503 32.020 C 92.503 32.359,92.673 32.529,93.011 32.529 C 93.350 32.529,93.520 32.698,93.520 33.037 C 93.520 33.376,93.689 33.545,94.028 33.545 C 94.367 33.545,94.536 33.715,94.536 34.053 C 94.536 34.392,94.706 34.562,95.044 34.562 C 95.383 34.562,95.553 34.731,95.553 35.070 C 95.553 35.409,95.722 35.578,96.061 35.578 C 96.400 35.578,96.569 35.748,96.569 36.086 C 96.569 36.425,96.739 36.595,97.078 36.595 C 97.416 36.595,97.586 36.764,97.586 37.103 C 97.586 37.442,97.755 37.611,98.094 37.611 C 98.433 37.611,98.602 37.781,98.602 38.119 C 98.602 38.458,98.772 38.628,99.111 38.628 C 99.449 38.628,99.619 38.797,99.619 39.136 C 99.619 39.634,99.449 39.644,91.362 39.644 C 83.380 39.644,83.094 39.661,82.787 40.152 C 82.613 40.432,82.278 40.661,82.044 40.661 C 81.343 40.661,80.813 40.946,80.813 41.323 C 80.813 41.518,80.623 41.677,80.391 41.677 C 79.976 41.677,78.526 43.095,78.526 43.502 C 78.526 43.617,78.355 43.710,78.145 43.710 C 77.935 43.710,77.764 43.835,77.764 43.988 C 77.764 44.141,77.535 44.556,77.255 44.912 C 76.976 45.267,76.747 45.724,76.747 45.928 C 76.747 46.132,76.518 46.589,76.239 46.945 C 75.583 47.778,75.483 53.562,76.106 54.638 C 76.308 54.987,76.544 55.445,76.631 55.654 C 76.888 56.277,77.254 57.016,77.598 57.606 C 77.992 58.285,79.970 60.229,80.266 60.229 C 80.384 60.229,80.678 60.447,80.920 60.714 C 81.161 60.981,81.665 61.276,82.039 61.369 C 82.413 61.463,82.931 61.730,83.190 61.964 C 83.621 62.352,85.385 62.395,103.584 62.463 C 123.177 62.535,123.507 62.545,123.507 63.034 C 123.507 63.363,123.680 63.532,124.015 63.532 C 124.354 63.532,124.524 63.702,124.524 64.041 C 124.524 64.380,124.693 64.549,125.032 64.549 C 125.371 64.549,125.540 64.718,125.540 65.057 C 125.540 65.396,125.709 65.565,126.048 65.565 C 126.387 65.565,126.557 65.735,126.557 66.074 C 126.557 66.413,126.726 66.582,127.065 66.582 C 127.404 66.582,127.573 66.751,127.573 67.090 C 127.573 67.429,127.742 67.598,128.081 67.598 C 128.420 67.598,128.590 67.768,128.590 68.107 C 128.590 68.610,128.400 68.616,107.814 68.674 C 96.388 68.707,110.769 68.793,139.771 68.865 L 192.503 68.996 194.442 69.946 C 199.664 72.505,202.550 78.925,200.531 83.490 C 200.239 84.150,200.000 84.784,200.000 84.899 C 200.000 86.378,196.231 89.620,193.334 90.634 L 191.623 91.233 149.751 91.295 C 126.721 91.329,117.913 91.387,130.178 91.423 C 152.266 91.489,152.478 91.494,152.478 91.996 C 152.478 92.334,152.648 92.503,152.986 92.503 C 153.325 92.503,153.494 92.673,153.494 93.011 C 153.494 93.350,153.664 93.520,154.003 93.520 C 154.341 93.520,154.511 93.689,154.511 94.028 C 154.511 94.367,154.680 94.536,155.019 94.536 C 155.358 94.536,155.527 94.706,155.527 95.044 C 155.527 95.383,155.697 95.553,156.036 95.553 C 156.374 95.553,156.544 95.722,156.544 96.061 C 156.544 96.400,156.713 96.569,157.052 96.569 C 157.391 96.569,157.560 96.739,157.560 97.078 C 157.560 97.416,157.730 97.586,158.069 97.586 C 158.407 97.586,158.577 97.755,158.577 98.094 C 158.577 98.433,158.746 98.602,159.085 98.602 C 159.424 98.602,159.593 98.772,159.593 99.111 C 159.593 99.449,159.763 99.619,160.102 99.619 C 160.440 99.619,160.610 99.788,160.610 100.127 C 160.610 100.466,160.779 100.635,161.118 100.635 C 161.457 100.635,161.626 100.805,161.626 101.144 C 161.626 101.426,161.796 101.652,162.008 101.652 C 162.219 101.652,162.389 101.878,162.389 102.160 C 162.389 102.499,162.558 102.668,162.897 102.668 C 163.236 102.668,163.405 102.838,163.405 103.177 C 163.405 103.515,163.575 103.685,163.914 103.685 C 164.252 103.685,164.422 103.854,164.422 104.193 C 164.422 104.532,164.591 104.701,164.930 104.701 C 165.269 104.701,165.438 104.871,165.438 105.210 C 165.438 105.548,165.608 105.718,165.947 105.718 C 166.285 105.718,166.455 105.887,166.455 106.226 C 166.455 106.565,166.624 106.734,166.963 106.734 C 167.246 106.734,167.471 106.904,167.471 107.116 C 167.471 107.327,167.697 107.497,167.980 107.497 C 168.319 107.497,168.488 107.666,168.488 108.005 C 168.488 108.344,168.657 108.513,168.996 108.513 C 169.335 108.513,169.504 108.683,169.504 109.022 C 169.504 109.360,169.674 109.530,170.013 109.530 C 170.352 109.530,170.521 109.699,170.521 110.038 C 170.521 110.377,170.690 110.546,171.029 110.546 C 171.368 110.546,171.537 110.716,171.537 111.055 C 171.537 111.393,171.707 111.563,172.046 111.563 C 172.385 111.563,172.554 111.732,172.554 112.071 C 172.554 112.410,172.723 112.579,173.062 112.579 C 173.401 112.579,173.571 112.749,173.571 113.088 C 173.571 113.427,173.740 113.596,174.079 113.596 C 174.418 113.596,174.587 113.765,174.587 114.104 C 174.587 114.443,174.756 114.612,175.095 114.612 C 175.434 114.612,175.604 114.782,175.604 115.121 C 175.604 115.460,175.773 115.629,176.112 115.629 C 176.451 115.629,176.620 115.798,176.620 116.137 C 176.620 116.420,176.789 116.645,177.001 116.645 C 177.213 116.645,177.382 116.871,177.382 117.154 C 177.382 117.493,177.552 117.662,177.891 117.662 C 178.230 117.662,178.399 117.831,178.399 118.170 C 178.399 118.509,178.568 118.679,178.907 118.679 C 179.246 118.679,179.416 118.848,179.416 119.187 C 179.416 119.526,179.585 119.695,179.924 119.695 C 180.263 119.695,180.432 119.864,180.432 120.203 C 180.432 120.542,180.601 120.712,180.940 120.712 C 181.279 120.712,181.449 120.881,181.449 121.220 C 181.449 121.559,181.618 121.728,181.957 121.728 C 182.296 121.728,182.465 121.898,182.465 122.236 C 182.465 122.575,182.634 122.745,182.973 122.745 C 183.256 122.745,183.482 122.914,183.482 123.126 C 183.482 123.338,183.707 123.507,183.990 123.507 C 184.329 123.507,184.498 123.676,184.498 124.015 C 184.498 124.354,184.668 124.524,185.006 124.524 C 185.345 124.524,185.515 124.693,185.515 125.032 C 185.515 125.371,185.684 125.540,186.023 125.540 C 186.362 125.540,186.531 125.709,186.531 126.048 C 186.531 126.682,192.284 126.596,136.595 126.797 L 90.597 126.963 141.096 127.014 L 191.594 127.065 193.546 127.991 C 202.186 132.092,202.082 145.606,193.389 148.279 C 193.042 148.386,192.597 148.603,192.401 148.760 C 192.141 148.969,181.391 149.082,152.883 149.176 L 113.723 149.305 153.439 149.367 C 188.220 149.421,193.172 149.382,193.298 149.054 C 193.377 148.848,193.833 148.606,194.310 148.517 C 194.788 148.427,195.263 148.211,195.366 148.036 C 195.469 147.861,195.896 147.539,196.315 147.319 C 197.418 146.742,198.475 145.669,198.475 145.127 C 198.475 144.870,198.704 144.599,198.983 144.526 C 199.263 144.453,199.492 144.179,199.492 143.918 C 199.492 143.656,199.720 143.246,200.000 143.007 C 200.351 142.706,200.508 142.257,200.508 141.553 C 200.508 140.703,200.593 140.534,201.017 140.534 C 201.355 140.534,201.525 140.703,201.525 141.042 C 201.525 141.381,201.694 141.550,202.033 141.550 C 202.372 141.550,202.541 141.720,202.541 142.058 C 202.541 142.397,202.711 142.567,203.050 142.567 C 203.388 142.567,203.558 142.736,203.558 143.075 C 203.558 143.414,203.727 143.583,204.066 143.583 C 204.405 143.583,204.574 143.753,204.574 144.091 C 204.574 144.430,204.744 144.600,205.083 144.600 C 205.421 144.600,205.591 144.769,205.591 145.108 C 205.591 145.447,205.760 145.616,206.099 145.616 C 206.438 145.616,206.607 145.786,206.607 146.125 C 206.607 146.463,206.777 146.633,207.116 146.633 C 207.454 146.633,207.624 146.802,207.624 147.141 C 207.624 147.423,207.793 147.649,208.005 147.649 C 208.217 147.649,208.386 147.875,208.386 148.158 C 208.386 148.496,208.556 148.666,208.895 148.666 C 209.233 148.666,209.403 148.835,209.403 149.174 C 209.403 149.513,209.572 149.682,209.911 149.682 C 210.250 149.682,210.419 149.852,210.419 150.191 C 210.419 150.529,210.589 150.699,210.928 150.699 C 211.266 150.699,211.436 150.868,211.436 151.207 C 211.436 151.546,211.605 151.715,211.944 151.715 C 212.283 151.715,212.452 151.885,212.452 152.224 C 212.452 152.562,212.622 152.732,212.961 152.732 C 213.299 152.732,213.469 152.901,213.469 153.240 C 213.469 153.579,213.638 153.748,213.977 153.748 C 214.316 153.748,214.485 153.918,214.485 154.257 C 214.485 154.596,214.655 154.765,214.994 154.765 C 215.276 154.765,215.502 154.934,215.502 155.146 C 215.502 155.358,215.728 155.527,216.010 155.527 C 216.349 155.527,216.518 155.697,216.518 156.036 C 216.518 156.374,216.688 156.544,217.027 156.544 C 217.366 156.544,217.535 156.713,217.535 157.052 C 217.535 157.391,217.704 157.560,218.043 157.560 C 218.382 157.560,218.551 157.730,218.551 158.069 C 218.551 158.407,218.721 158.577,219.060 158.577 C 219.399 158.577,219.568 158.746,219.568 159.085 C 219.568 159.424,219.737 159.593,220.076 159.593 C 220.415 159.593,220.584 159.763,220.584 160.102 C 220.584 160.440,220.754 160.610,221.093 160.610 C 221.432 160.610,221.601 160.779,221.601 161.118 C 221.601 161.457,221.770 161.626,222.109 161.626 C 222.448 161.626,222.618 161.796,222.618 162.135 C 222.618 162.417,222.787 162.643,222.999 162.643 C 223.211 162.643,223.380 162.869,223.380 163.151 C 223.380 163.490,223.549 163.659,223.888 163.659 C 224.227 163.659,224.396 163.829,224.396 164.168 C 224.396 164.507,224.566 164.676,224.905 164.676 C 225.244 164.676,225.413 164.845,225.413 165.184 C 225.413 165.523,225.582 165.693,225.921 165.693 C 226.260 165.693,226.429 165.862,226.429 166.201 C 226.429 166.540,226.599 166.709,226.938 166.709 C 227.277 166.709,227.446 166.878,227.446 167.217 C 227.446 167.556,227.615 167.726,227.954 167.726 C 228.293 167.726,228.463 167.895,228.463 168.234 C 228.463 168.573,228.632 168.742,228.971 168.742 C 229.310 168.742,229.479 168.911,229.479 169.250 C 229.479 169.589,229.648 169.759,229.987 169.759 C 230.326 169.759,230.496 169.928,230.496 170.267 C 230.496 170.606,230.665 170.775,231.004 170.775 C 231.286 170.775,231.512 170.945,231.512 171.156 C 231.512 171.368,231.738 171.537,232.020 171.537 C 232.359 171.537,232.529 171.707,232.529 172.046 C 232.529 172.385,232.698 172.554,233.037 172.554 C 233.376 172.554,233.545 172.723,233.545 173.062 C 233.545 173.401,233.715 173.571,234.053 173.571 C 234.392 173.571,234.562 173.740,234.562 174.079 C 234.562 174.418,234.731 174.587,235.070 174.587 C 235.409 174.587,235.578 174.756,235.578 175.095 C 235.578 175.434,235.748 175.604,236.086 175.604 C 236.425 175.604,236.595 175.773,236.595 176.112 C 236.595 176.451,236.764 176.620,237.103 176.620 C 237.442 176.620,237.611 176.789,237.611 177.128 C 237.611 177.411,237.781 177.637,237.992 177.637 C 238.204 177.637,238.374 177.862,238.374 178.145 C 238.374 178.484,238.543 178.653,238.882 178.653 C 239.221 178.653,239.390 178.823,239.390 179.161 C 239.390 179.500,239.560 179.670,239.898 179.670 C 240.237 179.670,240.407 179.839,240.407 180.178 C 240.407 180.517,240.576 180.686,240.915 180.686 C 241.254 180.686,241.423 180.856,241.423 181.194 C 241.423 181.533,241.593 181.703,241.931 181.703 C 242.270 181.703,242.440 181.872,242.440 182.211 C 242.440 182.550,242.609 182.719,242.948 182.719 C 243.287 182.719,243.456 182.889,243.456 183.227 C 243.456 183.692,243.277 183.738,241.360 183.764 C 240.206 183.780,238.520 183.823,237.611 183.860 C 236.703 183.896,233.672 183.998,230.877 184.086 C 228.081 184.174,224.651 184.300,223.253 184.366 C 221.855 184.433,218.939 184.504,216.773 184.523 C 214.606 184.543,212.319 184.646,211.690 184.752 C 211.061 184.858,237.759 184.957,271.020 184.971 L 331.493 184.998 332.201 184.319 L 332.910 183.641 332.910 103.936 L 332.910 24.231 332.322 23.678 L 331.733 23.126 200.428 23.126 C 69.462 23.126,69.122 23.127,68.615 23.634 M332.147 23.888 C 332.653 24.394,332.656 24.734,332.654 104.003 L 332.652 183.609 332.018 183.902 C 331.670 184.064,331.158 184.137,330.880 184.064 C 330.603 183.992,330.174 184.011,329.928 184.107 C 329.681 184.203,327.306 184.273,324.651 184.263 C 315.060 184.228,281.921 183.931,280.432 183.867 C 279.593 183.832,273.218 183.787,266.264 183.769 C 253.802 183.736,253.621 183.728,253.621 183.227 C 253.621 182.889,253.452 182.719,253.113 182.719 C 252.774 182.719,252.605 182.550,252.605 182.211 C 252.605 181.872,252.435 181.703,252.097 181.703 C 251.758 181.703,251.588 181.533,251.588 181.194 C 251.588 180.856,251.419 180.686,251.080 180.686 C 250.741 180.686,250.572 180.517,250.572 180.178 C 250.572 179.839,250.402 179.670,250.064 179.670 C 249.725 179.670,249.555 179.500,249.555 179.161 C 249.555 178.823,249.386 178.653,249.047 178.653 C 248.708 178.653,248.539 178.484,248.539 178.145 C 248.539 177.806,248.369 177.637,248.030 177.637 C 247.692 177.637,247.522 177.467,247.522 177.128 C 247.522 176.789,247.353 176.620,247.014 176.620 C 246.675 176.620,246.506 176.451,246.506 176.112 C 246.506 175.773,246.336 175.604,245.997 175.604 C 245.659 175.604,245.489 175.434,245.489 175.095 C 245.489 174.756,245.320 174.587,244.981 174.587 C 244.642 174.587,244.473 174.418,244.473 174.079 C 244.473 173.740,244.303 173.571,243.964 173.571 C 243.626 173.571,243.456 173.401,243.456 173.062 C 243.456 172.723,243.287 172.554,242.948 172.554 C 242.609 172.554,242.440 172.385,242.440 172.046 C 242.440 171.707,242.270 171.537,241.931 171.537 C 241.649 171.537,241.423 171.368,241.423 171.156 C 241.423 170.945,241.197 170.775,240.915 170.775 C 240.576 170.775,240.407 170.606,240.407 170.267 C 240.407 169.928,240.237 169.759,239.898 169.759 C 239.560 169.759,239.390 169.589,239.390 169.250 C 239.390 168.911,239.221 168.742,238.882 168.742 C 238.543 168.742,238.374 168.573,238.374 168.234 C 238.374 167.951,238.204 167.726,237.992 167.726 C 237.781 167.726,237.611 167.500,237.611 167.217 C 237.611 166.878,237.442 166.709,237.103 166.709 C 236.764 166.709,236.595 166.540,236.595 166.201 C 236.595 165.862,236.425 165.693,236.086 165.693 C 235.748 165.693,235.578 165.523,235.578 165.184 C 235.578 164.845,235.409 164.676,235.070 164.676 C 234.731 164.676,234.562 164.507,234.562 164.168 C 234.562 163.829,234.392 163.659,234.053 163.659 C 233.715 163.659,233.545 163.490,233.545 163.151 C 233.545 162.812,233.376 162.643,233.037 162.643 C 232.698 162.643,232.529 162.474,232.529 162.135 C 232.529 161.796,232.359 161.626,232.020 161.626 C 231.681 161.626,231.512 161.457,231.512 161.118 C 231.512 160.779,231.343 160.610,231.004 160.610 C 230.665 160.610,230.496 160.440,230.496 160.102 C 230.496 159.763,230.326 159.593,229.987 159.593 C 229.648 159.593,229.479 159.424,229.479 159.085 C 229.479 158.746,229.310 158.577,228.971 158.577 C 228.632 158.577,228.463 158.407,228.463 158.069 C 228.463 157.730,228.293 157.560,227.954 157.560 C 227.615 157.560,227.446 157.391,227.446 157.052 C 227.446 156.713,227.277 156.544,226.938 156.544 C 226.599 156.544,226.429 156.374,226.429 156.036 C 226.429 155.697,226.260 155.527,225.921 155.527 C 225.639 155.527,225.413 155.358,225.413 155.146 C 225.413 154.934,225.187 154.765,224.905 154.765 C 224.566 154.765,224.396 154.596,224.396 154.257 C 224.396 153.918,224.227 153.748,223.888 153.748 C 223.549 153.748,223.380 153.579,223.380 153.240 C 223.380 152.958,223.211 152.732,222.999 152.732 C 222.787 152.732,222.618 152.506,222.618 152.224 C 222.618 151.885,222.448 151.715,222.109 151.715 C 221.770 151.715,221.601 151.546,221.601 151.207 C 221.601 150.868,221.432 150.699,221.093 150.699 C 220.754 150.699,220.584 150.529,220.584 150.191 C 220.584 149.852,220.415 149.682,220.076 149.682 C 219.737 149.682,219.568 149.513,219.568 149.174 C 219.568 148.835,219.399 148.666,219.060 148.666 C 218.721 148.666,218.551 148.496,218.551 148.158 C 218.551 147.819,218.382 147.649,218.043 147.649 C 217.704 147.649,217.535 147.480,217.535 147.141 C 217.535 146.802,217.366 146.633,217.027 146.633 C 216.688 146.633,216.518 146.463,216.518 146.125 C 216.518 145.786,216.349 145.616,216.010 145.616 C 215.671 145.616,215.502 145.447,215.502 145.108 C 215.502 144.769,215.332 144.600,214.994 144.600 C 214.655 144.600,214.485 144.430,214.485 144.091 C 214.485 143.753,214.316 143.583,213.977 143.583 C 213.638 143.583,213.469 143.414,213.469 143.075 C 213.469 142.736,213.299 142.567,212.961 142.567 C 212.622 142.567,212.452 142.397,212.452 142.058 C 212.452 141.720,212.283 141.550,211.944 141.550 C 211.605 141.550,211.436 141.381,211.436 141.042 C 211.436 140.703,211.266 140.534,210.928 140.534 C 210.589 140.534,210.419 140.364,210.419 140.025 C 210.419 139.687,210.250 139.517,209.911 139.517 C 209.629 139.517,209.403 139.348,209.403 139.136 C 209.403 138.924,209.177 138.755,208.895 138.755 C 208.556 138.755,208.386 138.585,208.386 138.247 C 208.386 137.964,208.217 137.738,208.005 137.738 C 207.793 137.738,207.624 137.512,207.624 137.230 C 207.624 136.891,207.454 136.722,207.116 136.722 C 206.777 136.722,206.607 136.552,206.607 136.213 C 206.607 135.875,206.438 135.705,206.099 135.705 C 205.760 135.705,205.591 135.536,205.591 135.197 C 205.591 134.858,205.421 134.689,205.083 134.689 C 204.744 134.689,204.574 134.519,204.574 134.180 C 204.574 133.842,204.405 133.672,204.066 133.672 C 203.727 133.672,203.558 133.503,203.558 133.164 C 203.558 132.825,203.388 132.656,203.050 132.656 C 202.711 132.656,202.541 132.486,202.541 132.147 C 202.541 131.809,202.372 131.639,202.033 131.639 C 201.694 131.639,201.525 131.470,201.525 131.131 C 201.525 130.792,201.355 130.623,201.017 130.623 C 200.678 130.623,200.508 130.453,200.508 130.114 C 200.508 129.776,200.339 129.606,200.000 129.606 C 199.661 129.606,199.492 129.437,199.492 129.098 C 199.492 128.759,199.322 128.590,198.983 128.590 C 198.645 128.590,198.475 128.420,198.475 128.081 C 198.475 127.742,198.306 127.573,197.967 127.573 C 197.628 127.573,197.459 127.404,197.459 127.065 C 197.459 126.726,197.289 126.557,196.950 126.557 C 196.612 126.557,196.442 126.387,196.442 126.048 C 196.442 125.709,196.273 125.540,195.934 125.540 C 195.595 125.540,195.426 125.371,195.426 125.032 C 195.426 124.693,195.256 124.524,194.917 124.524 C 194.579 124.524,194.409 124.354,194.409 124.015 C 194.409 123.676,194.240 123.507,193.901 123.507 C 193.619 123.507,193.393 123.338,193.393 123.126 C 193.393 122.914,193.167 122.745,192.884 122.745 C 192.546 122.745,192.376 122.575,192.376 122.236 C 192.376 121.954,192.207 121.728,191.995 121.728 C 191.783 121.728,191.614 121.502,191.614 121.220 C 191.614 120.881,191.444 120.712,191.105 120.712 C 190.767 120.712,190.597 120.542,190.597 120.203 C 190.597 119.864,190.428 119.695,190.089 119.695 C 189.750 119.695,189.581 119.526,189.581 119.187 C 189.581 118.848,189.411 118.679,189.072 118.679 C 188.734 118.679,188.564 118.509,188.564 118.170 C 188.564 117.831,188.395 117.662,188.056 117.662 C 187.717 117.662,187.548 117.493,187.548 117.154 C 187.548 116.815,187.378 116.645,187.039 116.645 C 186.701 116.645,186.531 116.476,186.531 116.137 C 186.531 115.798,186.362 115.629,186.023 115.629 C 185.684 115.629,185.515 115.460,185.515 115.121 C 185.515 114.782,185.345 114.612,185.006 114.612 C 184.668 114.612,184.498 114.443,184.498 114.104 C 184.498 113.765,184.329 113.596,183.990 113.596 C 183.651 113.596,183.482 113.427,183.482 113.088 C 183.482 112.749,183.312 112.579,182.973 112.579 C 182.634 112.579,182.465 112.410,182.465 112.071 C 182.465 111.732,182.296 111.563,181.957 111.563 C 181.618 111.563,181.449 111.393,181.449 111.055 C 181.449 110.716,181.279 110.546,180.940 110.546 C 180.601 110.546,180.432 110.377,180.432 110.038 C 180.432 109.699,180.263 109.530,179.924 109.530 C 179.585 109.530,179.416 109.360,179.416 109.022 C 179.416 108.683,179.246 108.513,178.907 108.513 C 178.568 108.513,178.399 108.344,178.399 108.005 C 178.399 107.666,178.230 107.497,177.891 107.497 C 177.608 107.497,177.382 107.327,177.382 107.116 C 177.382 106.906,177.211 106.734,177.001 106.734 C 176.789 106.734,176.620 106.509,176.620 106.226 C 176.620 105.887,176.451 105.718,176.112 105.718 C 175.773 105.718,175.604 105.548,175.604 105.210 C 175.604 104.871,175.434 104.701,175.095 104.701 C 174.756 104.701,174.587 104.532,174.587 104.193 C 174.587 103.854,174.418 103.685,174.079 103.685 C 173.740 103.685,173.571 103.515,173.571 103.177 C 173.571 102.838,173.401 102.668,173.062 102.668 C 172.723 102.668,172.554 102.499,172.554 102.160 C 172.554 101.821,172.385 101.652,172.046 101.652 C 171.707 101.652,171.537 101.482,171.537 101.144 C 171.537 100.805,171.368 100.635,171.029 100.635 C 170.690 100.635,170.521 100.466,170.521 100.127 C 170.521 99.788,170.352 99.619,170.013 99.619 C 169.674 99.619,169.504 99.449,169.504 99.111 C 169.504 98.772,169.335 98.602,168.996 98.602 C 168.657 98.602,168.488 98.433,168.488 98.094 C 168.488 97.755,168.319 97.586,167.980 97.586 C 167.641 97.586,167.471 97.416,167.471 97.078 C 167.471 96.739,167.302 96.569,166.963 96.569 C 166.624 96.569,166.455 96.400,166.455 96.061 C 166.455 95.722,166.285 95.553,165.947 95.553 C 165.608 95.553,165.438 95.383,165.438 95.044 C 165.438 94.706,165.269 94.536,164.930 94.536 C 164.591 94.536,164.422 94.367,164.422 94.028 C 164.422 93.689,164.252 93.520,163.914 93.520 C 163.575 93.520,163.405 93.350,163.405 93.011 C 163.405 92.673,163.236 92.503,162.897 92.503 C 162.558 92.503,162.389 92.334,162.389 91.995 C 162.389 91.492,162.558 91.487,178.111 91.487 C 193.448 91.487,193.848 91.474,194.478 90.978 C 194.834 90.699,195.375 90.470,195.680 90.470 C 196.022 90.470,196.287 90.275,196.369 89.962 C 196.442 89.682,196.684 89.454,196.907 89.454 C 197.399 89.454,199.492 87.450,199.492 86.979 C 199.492 86.794,199.660 86.578,199.866 86.499 C 200.072 86.420,200.314 85.964,200.403 85.487 C 200.493 85.009,200.753 84.513,200.982 84.385 C 201.609 84.034,201.601 76.518,200.973 75.821 C 200.739 75.562,200.467 75.026,200.368 74.630 C 200.270 74.234,200.032 73.850,199.840 73.777 C 199.649 73.703,199.492 73.505,199.492 73.336 C 199.492 72.995,197.232 70.648,196.904 70.648 C 196.790 70.648,196.468 70.419,196.188 70.140 C 195.909 69.860,195.451 69.632,195.172 69.632 C 194.892 69.632,194.435 69.403,194.155 69.123 C 193.653 68.621,193.308 68.615,166.074 68.615 C 138.670 68.615,138.501 68.612,138.501 68.107 C 138.501 67.768,138.331 67.598,137.992 67.598 C 137.654 67.598,137.484 67.429,137.484 67.090 C 137.484 66.751,137.315 66.582,136.976 66.582 C 136.637 66.582,136.468 66.413,136.468 66.074 C 136.468 65.735,136.298 65.565,135.959 65.565 C 135.620 65.565,135.451 65.396,135.451 65.057 C 135.451 64.718,135.282 64.549,134.943 64.549 C 134.604 64.549,134.435 64.380,134.435 64.041 C 134.435 63.702,134.265 63.532,133.926 63.532 C 133.588 63.532,133.418 63.363,133.418 63.027 C 133.418 62.524,133.713 62.521,187.013 62.455 C 236.690 62.394,240.642 62.358,241.079 61.964 C 241.338 61.730,241.874 61.458,242.270 61.359 C 242.665 61.261,243.049 61.023,243.123 60.831 C 243.196 60.640,243.409 60.483,243.596 60.483 C 243.783 60.483,244.085 60.275,244.268 60.021 C 244.450 59.768,244.800 59.485,245.044 59.394 C 245.289 59.303,245.489 59.053,245.489 58.839 C 245.489 58.625,245.661 58.450,245.870 58.450 C 246.080 58.450,246.252 58.227,246.252 57.954 C 246.252 57.682,246.397 57.367,246.576 57.255 C 249.254 55.576,248.894 47.209,246.004 43.972 C 245.581 43.498,245.235 43.017,245.235 42.902 C 245.235 42.788,245.091 42.694,244.915 42.694 C 244.739 42.694,244.452 42.465,244.278 42.186 C 244.103 41.906,243.847 41.677,243.708 41.677 C 243.570 41.677,243.227 41.449,242.948 41.169 C 242.668 40.889,242.249 40.661,242.015 40.661 C 241.781 40.661,241.369 40.461,241.099 40.216 C 240.634 39.795,237.077 39.768,175.069 39.706 C 109.804 39.641,109.530 39.638,109.530 39.134 C 109.530 38.797,109.360 38.628,109.022 38.628 C 108.683 38.628,108.513 38.458,108.513 38.119 C 108.513 37.781,108.344 37.611,108.005 37.611 C 107.666 37.611,107.497 37.442,107.497 37.103 C 107.497 36.764,107.327 36.595,106.989 36.595 C 106.650 36.595,106.480 36.425,106.480 36.086 C 106.480 35.748,106.311 35.578,105.972 35.578 C 105.633 35.578,105.464 35.409,105.464 35.070 C 105.464 34.731,105.294 34.562,104.956 34.562 C 104.617 34.562,104.447 34.392,104.447 34.053 C 104.447 33.715,104.278 33.545,103.939 33.545 C 103.600 33.545,103.431 33.376,103.431 33.037 C 103.431 32.698,103.261 32.529,102.922 32.529 C 102.584 32.529,102.414 32.359,102.414 32.020 C 102.414 31.681,102.245 31.512,101.906 31.512 C 101.567 31.512,101.398 31.343,101.398 31.004 C 101.398 30.665,101.228 30.496,100.889 30.496 C 100.551 30.496,100.381 30.326,100.381 29.987 C 100.381 29.705,100.212 29.479,100.000 29.479 C 99.788 29.479,99.619 29.253,99.619 28.971 C 99.619 28.632,99.449 28.463,99.111 28.463 C 98.828 28.463,98.602 28.293,98.602 28.081 C 98.602 27.870,98.376 27.700,98.094 27.700 C 97.755 27.700,97.586 27.531,97.586 27.192 C 97.586 26.853,97.416 26.684,97.078 26.684 C 96.739 26.684,96.569 26.514,96.569 26.175 C 96.569 25.837,96.400 25.667,96.061 25.667 C 95.728 25.667,95.553 25.498,95.553 25.177 C 95.553 24.870,95.338 24.645,94.981 24.576 C 94.666 24.515,95.953 24.445,97.840 24.420 C 99.727 24.395,103.501 24.252,106.226 24.103 C 120.649 23.313,331.371 23.112,332.147 23.888 M241.463 40.999 C 243.330 41.933,246.252 44.396,246.252 45.035 C 246.252 45.193,246.405 45.503,246.592 45.723 C 248.925 48.471,248.258 55.018,245.306 58.360 C 244.656 59.097,242.126 60.991,241.793 60.991 C 241.714 60.991,241.124 61.230,240.483 61.523 L 239.316 62.054 162.034 62.094 L 84.752 62.135 83.227 61.504 C 77.547 59.156,74.312 52.520,76.471 47.641 C 76.762 46.981,77.001 46.347,77.001 46.232 C 77.001 44.656,81.337 41.069,84.371 40.134 C 84.720 40.027,119.771 39.958,162.262 39.982 L 239.517 40.025 241.463 40.999 M83.990 69.377 C 83.550 69.669,83.392 69.883,83.616 69.884 C 83.829 69.885,84.235 69.724,84.517 69.526 C 84.799 69.329,85.368 69.117,85.780 69.056 C 86.492 68.951,86.485 68.943,85.642 68.909 C 85.126 68.888,84.432 69.085,83.990 69.377 M81.304 70.914 C 80.545 71.479,79.876 72.079,79.818 72.248 C 79.760 72.416,80.119 72.211,80.616 71.792 C 81.112 71.372,81.902 70.772,82.370 70.457 C 82.838 70.143,83.100 69.886,82.952 69.886 C 82.805 69.886,82.063 70.348,81.304 70.914 M78.548 73.748 C 78.117 74.334,77.773 74.992,77.784 75.209 C 77.800 75.523,77.832 75.531,77.945 75.247 C 78.173 74.670,79.293 73.090,79.621 72.881 C 79.845 72.739,79.847 72.688,79.628 72.685 C 79.465 72.683,78.979 73.161,78.548 73.748 M77.276 76.200 C 77.125 76.483,77.002 76.864,77.003 77.048 C 77.004 77.232,77.177 77.051,77.389 76.646 C 77.600 76.241,77.723 75.859,77.662 75.798 C 77.601 75.737,77.427 75.918,77.276 76.200 M76.837 79.924 C 76.837 81.182,76.880 81.728,76.933 81.139 C 76.986 80.549,76.987 79.520,76.934 78.851 C 76.882 78.183,76.838 78.666,76.837 79.924 M78.551 86.263 C 78.845 86.761,79.189 87.232,79.314 87.310 C 79.440 87.387,79.303 87.044,79.009 86.546 C 78.715 86.048,78.372 85.576,78.246 85.499 C 78.120 85.421,78.257 85.765,78.551 86.263 M120.203 97.831 C 112.926 97.965,113.487 97.983,126.380 98.036 C 141.870 98.099,140.913 98.015,143.734 99.567 C 145.606 100.597,147.348 102.692,148.454 105.241 C 149.120 106.777,149.330 111.641,148.760 112.350 C 148.603 112.546,148.391 112.992,148.290 113.342 C 147.777 115.118,145.113 118.027,143.202 118.898 C 142.503 119.217,141.703 119.612,141.423 119.777 C 141.059 119.991,137.162 120.116,127.700 120.215 L 114.485 120.354 127.991 120.342 C 140.133 120.332,141.545 120.288,141.968 119.914 C 142.228 119.685,142.802 119.421,143.244 119.327 C 143.687 119.233,144.112 118.991,144.189 118.790 C 144.267 118.589,144.479 118.424,144.662 118.424 C 144.988 118.424,147.395 116.103,147.395 115.789 C 147.395 115.701,147.624 115.400,147.903 115.121 C 148.183 114.841,148.412 114.430,148.412 114.208 C 148.412 113.985,148.640 113.512,148.920 113.157 C 149.789 112.052,149.655 104.701,148.766 104.701 C 148.542 104.701,148.412 104.422,148.412 103.941 C 148.412 103.456,148.228 103.066,147.903 102.864 C 147.624 102.689,147.395 102.403,147.395 102.228 C 147.395 102.053,147.166 101.767,146.887 101.593 C 146.607 101.418,146.379 101.151,146.379 101.000 C 146.379 100.593,145.266 99.619,144.801 99.619 C 144.581 99.619,144.340 99.462,144.266 99.270 C 144.193 99.079,143.809 98.841,143.413 98.742 C 143.017 98.643,142.482 98.371,142.223 98.138 C 141.684 97.651,135.040 97.559,120.203 97.831 M85.073 98.020 C 85.389 98.080,85.846 98.078,86.089 98.015 C 86.332 97.951,86.074 97.901,85.515 97.904 C 84.956 97.907,84.757 97.959,85.073 98.020 M203.113 184.927 C 203.358 184.991,203.758 184.991,204.003 184.927 C 204.247 184.863,204.047 184.811,203.558 184.811 C 203.069 184.811,202.868 184.863,203.113 184.927 M205.146 184.927 C 205.391 184.991,205.791 184.991,206.036 184.927 C 206.280 184.863,206.080 184.811,205.591 184.811 C 205.102 184.811,204.902 184.863,205.146 184.927 M209.088 184.932 C 209.404 184.993,209.862 184.990,210.105 184.927 C 210.348 184.863,210.089 184.813,209.530 184.816 C 208.971 184.819,208.772 184.871,209.088 184.932 " stroke="none" fill="#04b484" fill-rule="evenodd"></path><path id="path4" d="M68.752 22.842 C 68.151 22.969,67.959 23.178,67.796 23.889 C 67.278 26.148,67.895 184.458,68.424 184.937 C 68.900 185.367,74.930 185.391,200.233 185.472 L 331.543 185.556 332.481 184.726 L 333.418 183.896 333.418 103.920 C 333.418 25.555,333.408 23.932,332.932 23.345 L 332.446 22.745 200.975 22.714 C 128.666 22.698,69.166 22.755,68.752 22.842 M332.322 23.678 L 332.910 24.231 332.910 103.936 L 332.910 183.641 332.164 184.355 L 331.419 185.069 200.335 184.888 L 69.250 184.707 68.679 184.177 L 68.107 183.647 68.107 103.895 C 68.107 24.481,68.109 24.140,68.615 23.634 C 69.122 23.127,69.462 23.126,200.428 23.126 L 331.733 23.126 332.322 23.678 M84.371 40.134 C 81.337 41.069,77.001 44.656,77.001 46.232 C 77.001 46.347,76.762 46.981,76.471 47.641 C 74.312 52.520,77.547 59.156,83.227 61.504 L 84.752 62.135 162.034 62.094 L 239.316 62.054 240.483 61.523 C 241.124 61.230,241.714 60.991,241.793 60.991 C 242.126 60.991,244.656 59.097,245.306 58.360 C 248.258 55.018,248.925 48.471,246.592 45.723 C 246.405 45.503,246.252 45.193,246.252 45.035 C 246.252 44.396,243.330 41.933,241.463 40.999 L 239.517 40.025 162.262 39.982 C 119.771 39.958,84.720 40.027,84.371 40.134 M239.575 40.937 C 240.522 41.228,241.468 41.572,241.677 41.701 C 241.887 41.830,242.344 42.077,242.692 42.251 C 243.391 42.599,245.743 44.961,245.743 45.314 C 245.743 45.436,245.972 45.827,246.252 46.182 C 246.531 46.538,246.760 47.105,246.760 47.442 C 246.760 47.780,246.950 48.422,247.182 48.869 C 247.732 49.927,247.732 52.233,247.182 53.291 C 246.950 53.738,246.760 54.349,246.760 54.649 C 246.760 54.948,246.531 55.484,246.252 55.839 C 245.972 56.195,245.743 56.641,245.743 56.831 C 245.743 57.269,243.220 59.720,242.770 59.720 C 242.586 59.720,242.239 59.949,241.999 60.229 C 241.760 60.508,241.275 60.739,240.922 60.743 C 240.569 60.746,239.781 60.974,239.172 61.251 C 237.426 62.043,86.335 62.043,84.589 61.251 C 83.980 60.974,83.250 60.746,82.966 60.743 C 82.683 60.739,82.255 60.508,82.016 60.229 C 81.776 59.949,81.430 59.720,81.245 59.720 C 80.774 59.720,78.272 57.259,78.272 56.795 C 78.272 56.584,78.043 56.216,77.764 55.977 C 77.484 55.737,77.255 55.277,77.255 54.954 C 77.255 54.632,77.084 53.957,76.874 53.455 C 76.454 52.449,76.351 49.165,76.732 48.929 C 76.864 48.848,77.048 48.276,77.140 47.659 C 77.233 47.041,77.525 46.340,77.790 46.100 C 78.055 45.861,78.272 45.519,78.272 45.342 C 78.272 44.984,80.698 42.440,81.038 42.440 C 81.156 42.440,81.532 42.220,81.873 41.952 C 82.213 41.684,82.909 41.387,83.418 41.291 C 83.928 41.196,84.551 40.961,84.802 40.770 C 85.187 40.478,97.447 40.421,161.558 40.415 L 237.855 40.407 239.575 40.937 M85.780 69.053 C 85.368 69.116,84.799 69.329,84.517 69.526 C 84.235 69.724,83.841 69.886,83.642 69.886 C 82.449 69.886,78.066 73.998,78.009 75.170 C 78.004 75.269,77.780 75.807,77.510 76.366 C 76.891 77.647,76.777 82.663,77.348 83.489 C 77.539 83.764,77.779 84.258,77.881 84.585 C 78.455 86.423,80.702 88.755,83.227 90.134 L 85.006 91.105 138.308 91.171 L 191.610 91.237 193.327 90.636 C 196.231 89.620,200.000 86.379,200.000 84.899 C 200.000 84.784,200.239 84.150,200.531 83.490 C 202.550 78.925,199.664 72.505,194.442 69.946 L 192.503 68.996 139.517 68.967 C 110.375 68.951,86.193 68.990,85.780 69.053 M192.188 69.886 C 192.983 70.165,193.840 70.394,194.092 70.394 C 194.344 70.394,194.746 70.623,194.986 70.902 C 195.225 71.182,195.623 71.410,195.870 71.410 C 196.118 71.410,196.463 71.639,196.637 71.919 C 196.812 72.198,197.125 72.427,197.334 72.427 C 197.542 72.427,197.713 72.581,197.713 72.769 C 197.713 72.957,197.942 73.318,198.221 73.571 C 198.501 73.824,198.729 74.185,198.729 74.375 C 198.729 74.564,198.958 74.915,199.238 75.154 C 199.517 75.394,199.746 75.778,199.746 76.008 C 199.746 76.238,199.980 77.156,200.267 78.048 C 200.781 79.651,200.774 81.890,200.252 82.212 C 200.138 82.283,199.965 82.810,199.868 83.385 C 199.699 84.382,198.929 85.819,198.100 86.680 C 197.887 86.901,197.713 87.215,197.713 87.378 C 197.713 87.541,197.542 87.675,197.334 87.675 C 197.125 87.675,196.812 87.903,196.637 88.183 C 196.463 88.463,196.191 88.691,196.034 88.691 C 195.877 88.691,195.476 88.905,195.142 89.166 C 194.809 89.428,194.136 89.725,193.647 89.827 C 193.158 89.928,192.504 90.172,192.194 90.368 C 191.349 90.903,86.668 90.903,85.823 90.368 C 85.514 90.172,84.860 89.928,84.371 89.827 C 83.882 89.725,83.209 89.428,82.876 89.166 C 82.542 88.905,82.157 88.691,82.020 88.691 C 81.692 88.691,79.288 86.166,79.288 85.821 C 79.288 85.675,79.092 85.337,78.851 85.071 C 77.785 83.894,77.058 79.930,77.620 78.360 C 77.862 77.682,78.120 76.785,78.193 76.366 C 78.266 75.947,78.468 75.489,78.641 75.349 C 78.814 75.210,79.135 74.752,79.353 74.333 C 79.929 73.226,81.682 71.410,82.174 71.410 C 82.407 71.410,82.793 71.182,83.032 70.902 C 83.272 70.623,83.699 70.391,83.983 70.387 C 84.266 70.384,84.956 70.164,85.515 69.900 C 87.156 69.123,189.979 69.109,192.188 69.886 M85.260 98.062 C 82.209 98.491,77.001 102.346,77.001 104.177 C 77.001 104.295,76.775 104.890,76.499 105.500 C 75.788 107.065,75.785 111.240,76.493 112.706 C 76.763 113.266,76.988 113.854,76.993 114.015 C 77.023 115.047,81.282 119.187,82.312 119.187 C 82.544 119.187,83.016 119.387,83.361 119.632 C 84.150 120.190,140.176 120.335,141.321 119.781 C 141.657 119.619,142.503 119.224,143.202 118.903 C 144.919 118.114,148.153 114.726,148.159 113.709 C 148.160 113.577,148.352 113.126,148.586 112.706 C 149.292 111.441,149.214 106.991,148.454 105.241 C 146.998 101.885,145.202 100.103,141.804 98.643 C 140.608 98.130,88.585 97.595,85.260 98.062 M139.009 98.597 C 139.498 98.727,140.413 98.966,141.042 99.129 C 141.671 99.291,142.357 99.527,142.567 99.654 C 142.776 99.780,143.306 100.048,143.743 100.250 C 144.180 100.451,144.606 100.792,144.688 101.007 C 144.770 101.222,144.995 101.398,145.186 101.398 C 145.378 101.398,145.665 101.684,145.824 102.033 C 145.983 102.382,146.230 102.668,146.373 102.668 C 146.516 102.668,146.633 102.840,146.633 103.050 C 146.633 103.259,146.849 103.647,147.114 103.912 C 147.379 104.177,147.673 104.852,147.768 105.413 C 147.863 105.974,148.100 106.644,148.295 106.902 C 148.773 107.532,148.783 110.633,148.310 111.381 C 148.114 111.691,147.870 112.344,147.768 112.834 C 147.666 113.323,147.369 113.996,147.108 114.329 C 146.847 114.662,146.633 115.035,146.633 115.156 C 146.633 115.508,144.405 117.609,143.842 117.787 C 143.562 117.877,143.188 118.090,143.013 118.261 C 142.837 118.433,141.919 118.826,140.973 119.134 L 139.252 119.695 112.349 119.695 C 88.978 119.695,85.350 119.645,84.718 119.315 C 84.317 119.107,83.748 118.935,83.452 118.934 C 83.157 118.933,82.624 118.704,82.269 118.424 C 81.913 118.145,81.503 117.916,81.358 117.916 C 81.213 117.916,80.785 117.630,80.408 117.281 C 80.031 116.931,79.625 116.645,79.505 116.645 C 79.386 116.645,79.288 116.512,79.288 116.349 C 79.288 116.186,79.114 115.872,78.901 115.650 C 78.101 114.819,77.322 113.393,77.142 112.431 C 77.039 111.884,76.842 111.299,76.704 111.131 C 76.228 110.555,76.794 105.735,77.476 104.549 C 78.998 101.904,81.771 99.365,83.138 99.365 C 83.425 99.365,84.019 99.201,84.460 99.001 C 84.900 98.801,85.489 98.585,85.769 98.522 C 86.792 98.291,138.129 98.363,139.009 98.597 M82.973 127.670 C 80.445 128.761,77.001 131.929,77.001 133.164 C 77.001 133.315,76.773 133.887,76.493 134.435 C 76.080 135.244,75.985 135.932,75.985 138.100 C 75.985 142.941,78.281 146.373,82.940 148.495 L 84.432 149.174 137.960 149.165 C 190.331 149.157,191.509 149.146,192.503 148.666 C 193.062 148.396,193.608 148.171,193.716 148.166 C 193.824 148.161,194.392 147.843,194.979 147.459 C 202.389 142.608,201.595 131.812,193.546 127.991 L 191.594 127.065 137.919 127.093 L 84.244 127.122 82.973 127.670 M190.089 127.569 C 192.854 128.307,193.696 128.603,194.051 128.958 C 194.268 129.175,194.602 129.352,194.792 129.352 C 195.226 129.352,197.713 131.891,197.713 132.334 C 197.713 132.514,197.942 132.856,198.221 133.096 C 198.501 133.335,198.732 133.763,198.735 134.046 C 198.738 134.330,198.967 135.060,199.243 135.669 C 199.839 136.983,199.899 138.993,199.372 140.011 C 199.166 140.409,198.923 141.204,198.831 141.778 C 198.739 142.351,198.559 142.821,198.430 142.821 C 198.301 142.821,198.039 143.195,197.848 143.652 C 197.381 144.770,195.289 146.887,194.652 146.887 C 194.370 146.887,194.074 147.055,193.995 147.261 C 193.916 147.467,193.434 147.711,192.923 147.803 C 192.413 147.896,191.709 148.113,191.360 148.286 C 190.256 148.833,85.763 148.927,84.752 148.382 C 84.333 148.156,83.561 147.894,83.037 147.799 C 82.513 147.704,82.084 147.528,82.084 147.409 C 82.084 147.289,81.769 147.079,81.385 146.943 C 80.448 146.611,78.894 145.057,78.265 143.823 C 77.983 143.272,77.641 142.821,77.504 142.821 C 77.367 142.821,77.255 142.531,77.255 142.177 C 77.255 141.823,77.084 141.123,76.874 140.622 C 76.665 140.120,76.493 138.994,76.493 138.119 C 76.493 137.245,76.665 136.119,76.874 135.617 C 77.084 135.116,77.255 134.421,77.255 134.074 C 77.255 133.727,77.411 133.352,77.602 133.240 C 77.793 133.128,78.137 132.668,78.368 132.217 C 78.841 131.292,80.763 129.352,81.207 129.352 C 81.367 129.352,81.762 129.123,82.084 128.844 C 82.406 128.564,82.892 128.335,83.164 128.335 C 83.436 128.335,84.019 128.174,84.460 127.977 C 84.900 127.780,85.432 127.560,85.642 127.489 C 86.359 127.245,189.171 127.323,190.089 127.569 " stroke="none" fill="#043c34" fill-rule="evenodd"></path></g></svg>